<svg width="101" height="102" viewBox="0 0 101 102" fill="none" xmlns="http://www.w3.org/2000/svg">
<path fill-rule="evenodd" clip-rule="evenodd" d="M74.8823 39.5765L28.4097 66.4074L26.1099 62.424L72.5824 35.5931L74.8823 39.5765Z" fill="white"/>
<path fill-rule="evenodd" clip-rule="evenodd" d="M70.5923 36.7408C61.2246 42.1492 58.326 54.8067 63.3978 63.5913L64.5477 65.583L68.5311 63.2831L67.3812 61.2914C63.5305 54.6218 65.8086 44.814 72.8922 40.7242L74.8828 39.5749L72.583 35.5915L70.5923 36.7408Z" fill="white"/>
<path fill-rule="evenodd" clip-rule="evenodd" d="M72.8923 40.7251C63.5246 46.1335 51.1135 42.3149 46.0418 33.5304L44.8918 31.5387L48.8753 29.2388L50.0252 31.2305C53.876 37.9003 63.5089 40.8314 70.5925 36.7416L72.5831 35.5923L74.8829 39.5758L72.8923 40.7251Z" fill="white"/>
</svg>
