<svg width="60" height="61" viewBox="0 0 60 61" fill="none" xmlns="http://www.w3.org/2000/svg">
<path d="M14.9505 54.4408C11.4309 54.4369 8.05644 53.037 5.56766 50.5482C3.07887 48.0594 1.67898 44.685 1.67511 41.1654L1.67511 41.0989C1.67511 41.0551 1.66944 40.9894 1.66457 40.9026C1.39214 36.0816 2.18025 23.0648 15.3502 6.38562C15.4689 6.23582 15.6366 6.13272 15.8238 6.09451C16.011 6.05629 16.2057 6.08542 16.3735 6.17675C16.5413 6.26808 16.6715 6.41575 16.7411 6.5937C16.8106 6.77166 16.8151 6.96846 16.7538 7.1494C16.7165 7.25967 13.1173 18.041 15.5765 27.9062C19.0402 28.0687 22.3029 29.58 24.6668 32.117C27.0306 34.6539 28.3081 38.0151 28.2259 41.4817C28.1437 44.9482 26.7084 48.2451 24.2269 50.6671C21.7455 53.0892 18.4148 54.4442 14.9473 54.4424L14.9505 54.4408ZM3.29674 41.2116C3.30571 43.5145 3.99681 45.7632 5.28279 47.6736C6.56876 49.5841 8.39196 51.0707 10.5222 51.9458C12.6524 52.8209 14.9942 53.0452 17.2518 52.5905C19.5094 52.1357 21.5816 51.0222 23.2069 49.3906C24.8322 47.759 25.9376 45.6824 26.3836 43.4231C26.8296 41.1637 26.5962 38.8228 25.7128 36.696C24.8294 34.5692 23.3357 32.7518 21.4203 31.4733C19.5048 30.1947 17.2535 29.5124 14.9505 29.5124C14.773 29.5123 14.6003 29.454 14.4591 29.3463C14.3179 29.2387 14.216 29.0876 14.1689 28.9164C12.304 22.1299 13.2186 15.011 14.1454 10.691C3.6989 25.3245 3.04295 36.4943 3.28701 40.8118C3.29802 40.9448 3.30127 41.0782 3.29674 41.2116ZM45.1013 54.4408C41.5817 54.4369 38.2073 53.037 35.7185 50.5482C33.2297 48.0594 31.8298 44.685 31.8259 41.1653L31.8259 41.0989C31.8259 41.0551 31.8203 40.9894 31.8154 40.9026C31.543 36.0816 32.3311 23.0648 45.5011 6.38562C45.6197 6.23582 45.7874 6.13272 45.9746 6.0945C46.1618 6.05629 46.3565 6.08542 46.5243 6.17675C46.6921 6.26808 46.8223 6.41575 46.8919 6.5937C46.9615 6.77165 46.966 6.96846 46.9046 7.1494C46.8673 7.25967 43.2681 18.041 45.7273 27.9062C49.191 28.0687 52.4537 29.58 54.8176 32.117C57.1814 34.6539 58.4589 38.0151 58.3767 41.4817C58.2945 44.9482 56.8592 48.2451 54.3777 50.6671C51.8963 53.0892 48.5656 54.4442 45.0981 54.4424L45.1013 54.4408ZM33.4475 41.2116C33.4565 43.5145 34.1476 45.7632 35.4336 47.6736C36.7196 49.5841 38.5428 51.0707 40.673 51.9458C42.8032 52.8209 45.145 53.0452 47.4026 52.5905C49.6602 52.1357 51.7324 51.0222 53.3577 49.3906C54.983 47.759 56.0884 45.6824 56.5344 43.423C56.9804 41.1637 56.747 38.8228 55.8636 36.696C54.9802 34.5692 53.4865 32.7518 51.5711 31.4733C49.6556 30.1947 47.4043 29.5124 45.1013 29.5124C44.9238 29.5123 44.7511 29.454 44.6099 29.3463C44.4687 29.2387 44.3668 29.0876 44.3197 28.9164C42.4548 22.1299 43.3694 15.011 44.2962 10.691C33.8497 25.3245 33.193 36.4943 33.437 40.8118C33.4483 40.9448 33.4518 41.0782 33.4475 41.2116Z" fill="#6F9700"/>
</svg>
