<svg width="60" height="60" viewBox="0 0 60 60" fill="none" xmlns="http://www.w3.org/2000/svg">
<path d="M45.0505 5.81706C48.5701 5.82092 51.9445 7.22081 54.4333 9.7096C56.9221 12.1984 58.322 15.5728 58.3259 19.0925V19.1589C58.3259 19.2027 58.3315 19.2684 58.3364 19.3552C58.6088 24.1762 57.8207 37.193 44.6507 53.8722C44.5321 54.022 44.3644 54.1251 44.1772 54.1633C43.99 54.2015 43.7953 54.1724 43.6275 54.0811C43.4597 53.9897 43.3295 53.8421 43.2599 53.6641C43.1903 53.4862 43.1858 53.2893 43.2472 53.1084C43.2845 52.9981 46.8837 42.2168 44.4245 32.3517C40.9608 32.1891 37.6981 30.6778 35.3342 28.1408C32.9704 25.6039 31.6929 22.2427 31.7751 18.7762C31.8573 15.3096 33.2926 12.0127 35.7741 9.59069C38.2555 7.16864 41.5861 5.81363 45.0537 5.81544L45.0505 5.81706ZM56.7042 19.0462C56.6953 16.7433 56.0042 14.4946 54.7182 12.5842C53.4322 10.6737 51.609 9.18707 49.4788 8.31198C47.3486 7.43689 45.0068 7.21258 42.7492 7.66736C40.4916 8.12214 38.4193 9.23561 36.7941 10.8672C35.1688 12.4988 34.0634 14.5754 33.6174 16.8348C33.1714 19.0941 33.4048 21.435 34.2882 23.5618C35.1715 25.6886 36.6652 27.506 38.5807 28.7845C40.4962 30.0631 42.7475 30.7454 45.0505 30.7454C45.228 30.7455 45.4007 30.8038 45.5419 30.9115C45.6831 31.0191 45.785 31.1702 45.8321 31.3414C47.6969 38.1279 46.7824 45.2468 45.8556 49.5668C56.3021 34.9333 56.958 23.7635 56.714 19.446C56.703 19.313 56.6997 19.1796 56.7042 19.0462ZM14.8997 5.81706C18.4193 5.82092 21.7937 7.22081 24.2825 9.7096C26.7713 12.1984 28.1712 15.5728 28.1751 19.0925V19.1589C28.1751 19.2027 28.1807 19.2684 28.1856 19.3552C28.458 24.1762 27.6699 37.193 14.4999 53.8722C14.3813 54.022 14.2136 54.1251 14.0264 54.1633C13.8392 54.2015 13.6445 54.1724 13.4767 54.0811C13.3088 53.9897 13.1787 53.8421 13.1091 53.6641C13.0395 53.4862 13.035 53.2893 13.0964 53.1084C13.1337 52.9981 16.7329 42.2168 14.2737 32.3517C10.81 32.1891 7.54729 30.6778 5.18341 28.1408C2.81954 25.6039 1.54211 22.2427 1.62431 18.7762C1.7065 15.3096 3.1418 12.0127 5.62325 9.59069C8.1047 7.16864 11.4353 5.81363 14.9029 5.81544L14.8997 5.81706ZM26.5534 19.0462C26.5445 16.7433 25.8534 14.4946 24.5674 12.5842C23.2814 10.6737 21.4582 9.18707 19.328 8.31198C17.1978 7.43689 14.856 7.21258 12.5984 7.66736C10.3408 8.12214 8.26854 9.23561 6.64326 10.8672C5.01799 12.4988 3.91257 14.5754 3.46658 16.8348C3.02058 19.0941 3.254 21.435 4.13736 23.5618C5.02073 25.6886 6.51444 27.506 8.4299 28.7845C10.3454 30.0631 12.5967 30.7454 14.8997 30.7454C15.0772 30.7455 15.2499 30.8038 15.3911 30.9115C15.5323 31.0191 15.6342 31.1702 15.6813 31.3414C17.5461 38.1279 16.6315 45.2468 15.7048 49.5668C26.1513 34.9333 26.808 23.7635 26.564 19.446C26.5527 19.313 26.5492 19.1796 26.5534 19.0462Z" fill="#6F9700"/>
</svg>
