<svg width="70" height="57" viewBox="0 0 70 57" fill="none" xmlns="http://www.w3.org/2000/svg">
<path d="M16.4352 56.9981C12.0942 56.9935 7.9323 55.3437 4.86272 52.4105C1.79315 49.4773 0.0665688 45.5004 0.0618043 41.3523V41.2739C0.0618043 41.2223 0.0548041 41.1449 0.0488039 41.0427C-0.287204 35.3607 0.684819 20.0198 16.9282 0.362402C17.0745 0.185855 17.2813 0.0643453 17.5122 0.0193082C17.7431 -0.0257289 17.9832 0.00859995 18.1902 0.116239C18.3972 0.223878 18.5578 0.397911 18.6436 0.607638C18.7294 0.817366 18.735 1.04931 18.6593 1.26256C18.6133 1.39252 14.1741 14.099 17.2072 25.7256C21.4793 25.9171 25.5033 27.6983 28.4188 30.6883C31.3343 33.6782 32.9099 37.6395 32.8085 41.7251C32.7071 45.8106 30.9369 49.6961 27.8764 52.5506C24.8158 55.4052 20.708 57.0021 16.4312 57L16.4352 56.9981ZM2.06185 41.4067C2.07292 44.1209 2.9253 46.7711 4.51137 49.0227C6.09745 51.2743 8.34611 53.0263 10.9734 54.0577C13.6008 55.089 16.489 55.3534 19.2735 54.8174C22.0579 54.2814 24.6138 52.9691 26.6183 51.0462C28.6229 49.1233 29.9862 46.6759 30.5363 44.0131C31.0864 41.3503 30.7985 38.5915 29.709 36.0849C28.6195 33.5784 26.7772 31.4365 24.4147 29.9296C22.0523 28.4228 19.2756 27.6186 16.4352 27.6186C16.2162 27.6185 16.0033 27.5498 15.8291 27.4229C15.655 27.296 15.5292 27.118 15.4712 26.9162C13.1711 18.918 14.2991 10.5279 15.4422 5.43656C2.55786 22.683 1.74884 35.8471 2.04985 40.9356C2.06343 41.0923 2.06744 41.2496 2.06185 41.4067ZM53.6221 56.9981C49.2811 56.9935 45.1192 55.3437 42.0496 52.4105C38.98 49.4773 37.2535 45.5004 37.2487 41.3523V41.2739C37.2487 41.2223 37.2417 41.1449 37.2357 41.0427C36.8997 35.3607 37.8717 20.0198 54.1151 0.362402C54.2614 0.185855 54.4682 0.0643453 54.6991 0.0193082C54.93 -0.0257289 55.1701 0.00859995 55.3771 0.116239C55.5841 0.223878 55.7447 0.397911 55.8305 0.607638C55.9163 0.817366 55.9218 1.04931 55.8461 1.26256C55.8001 1.39252 51.361 14.099 54.3941 25.7256C58.6662 25.9171 62.6902 27.6983 65.6057 30.6883C68.5212 33.6782 70.0968 37.6395 69.9954 41.7251C69.894 45.8106 68.1238 49.6961 65.0632 52.5506C62.0027 55.4052 57.8948 57.0021 53.6181 57L53.6221 56.9981ZM39.2487 41.4067C39.2598 44.1209 40.1122 46.7711 41.6983 49.0227C43.2843 51.2743 45.533 53.0263 48.1603 54.0577C50.7877 55.089 53.6759 55.3534 56.4604 54.8174C59.2448 54.2814 61.8007 52.9691 63.8052 51.0462C65.8098 49.1233 67.1731 46.6759 67.7232 44.0131C68.2733 41.3503 67.9854 38.5915 66.8959 36.0849C65.8064 33.5784 63.9641 31.4365 61.6016 29.9296C59.2392 28.4228 56.4625 27.6186 53.6221 27.6186C53.4031 27.6185 53.1902 27.5498 53.016 27.4229C52.8418 27.296 52.7161 27.118 52.6581 26.9162C50.358 18.918 51.486 10.5279 52.6291 5.43656C39.7448 22.683 38.9347 35.8471 39.2357 40.9356C39.2497 41.0923 39.254 41.2496 39.2487 41.4067Z" fill="#6F9700"/>
</svg>
