<svg width="87" height="40" viewBox="0 0 87 40" fill="none" xmlns="http://www.w3.org/2000/svg">
<path opacity="0.5" d="M7.5903 11.3067L7.55748 12.3595L8.39392 11.7194C9.4074 10.9438 10.373 10.2315 11.3057 9.54432L11.4152 9.46366C12.3061 8.80742 13.1684 8.17222 14.0089 7.52916C20.0575 3.14704 26.7114 0.991222 34.2729 1.45528C39.7159 1.8401 44.1832 3.99581 47.1483 8.42014C49.4137 11.8004 51.4993 15.3503 53.5744 18.8823C54.3005 20.1181 55.0253 21.3517 55.756 22.5752C56.3621 23.5944 56.9275 24.6187 57.4938 25.6446C57.594 25.8262 57.6943 26.0079 57.7948 26.1896C58.4613 27.3942 59.1376 28.5972 59.8809 29.7709L59.8847 29.777L59.8887 29.7829C61.2761 31.841 62.6793 33.1641 64.4026 33.8082C66.1208 34.4504 68.0758 34.3867 70.499 33.8498L70.4999 33.8496C76.2262 32.5701 80.8362 28.9232 84.2449 22.9527C85.207 23.5814 85.5476 24.307 85.5895 25.0186C85.64 25.8755 85.2645 26.8227 84.702 27.7152L84.7001 27.7182C83.2872 29.9949 81.5737 32.2383 79.5694 33.8411C77.2495 35.6862 74.4908 37.2723 71.7461 38.2257L71.7461 38.2257L71.7431 38.2268C68.2666 39.4598 65.2762 39.639 62.6581 38.7998C60.0405 37.9608 57.726 36.0815 55.6434 33.0647L55.6429 33.0639C54.3946 31.2629 53.3029 29.3794 52.2357 27.4662C51.9706 26.9911 51.7068 26.5134 51.4424 26.0348C50.646 24.5932 49.8444 23.1422 48.9896 21.7207C46.9444 18.2379 44.8009 14.7191 42.5269 11.2618C40.7365 8.50233 38.024 7.14519 34.8725 6.62609L34.869 6.62554C30.0639 5.86866 25.6102 6.66001 21.2327 8.88599C20.3086 9.33904 19.4829 9.82575 18.6273 10.408C15.0118 12.8197 11.3951 15.2321 7.48762 17.8671L6.31011 18.6611L7.72536 18.7799C11.0718 19.0607 14.2895 19.3245 17.4543 19.5839L17.6072 19.5964C20.6239 19.8436 23.5937 20.087 26.5831 20.3375C26.5879 20.3529 26.5929 20.3692 26.5982 20.3864C26.617 20.4487 26.6389 20.5243 26.6627 20.6066C26.6741 20.6459 26.6859 20.6867 26.698 20.7283C26.5729 20.8128 26.4543 20.9012 26.3491 20.9796C26.3067 21.0112 26.2665 21.0411 26.2289 21.0685C25.9641 21.2618 25.8216 21.3364 25.7412 21.3484C24.4776 21.5007 23.2135 21.6604 21.9493 21.8202C16.913 22.4566 11.8747 23.0933 6.85556 23.2614C4.47269 23.3379 2.88335 22.8278 1.91989 21.8348C0.957434 20.8428 0.509275 19.255 0.677056 16.9153L0.67744 16.9087C0.919277 12.7682 1.98653 8.6843 3.13175 4.68369L3.13527 4.6714L3.13815 4.65894C3.16821 4.52919 3.26567 4.35177 3.45949 4.14367C3.64849 3.94075 3.9024 3.7375 4.19223 3.5543C4.78512 3.17953 5.44276 2.94113 5.87315 2.919L5.89386 2.91793L5.90593 2.9163C5.90514 2.91646 5.90473 2.9166 5.90471 2.91679C5.90447 2.91943 5.98215 2.92933 6.153 3.05635C6.33227 3.18962 6.53955 3.39702 6.74469 3.65237C7.16542 4.17609 7.49098 4.79173 7.5636 5.18834L7.56592 5.20104L7.5689 5.21359C7.77453 6.0814 7.80362 6.97611 7.7672 7.97698C7.75058 8.43395 7.72069 8.90616 7.689 9.40683L7.67981 9.55208C7.64498 10.1045 7.60958 10.6887 7.5903 11.3067Z" fill="white" stroke="white"/>
</svg>
