<svg width="40" height="40" viewBox="0 0 40 40" fill="none" xmlns="http://www.w3.org/2000/svg">
<path d="M36.418 17.0995H35.3211C33.4692 17.0995 31.9095 18.3735 31.4717 20.091C30.7452 19.3011 29.704 18.805 28.5487 18.805H27.1394C26.8157 18.805 26.5534 19.0673 26.5534 19.3909V20.8004C26.5534 22.9906 28.3353 24.7725 30.5255 24.7725H31.349V25.6739H27.4759C27.1522 25.6739 26.8899 25.9363 26.8899 26.2598C26.8899 26.5834 27.1522 26.8458 27.4759 26.8458H32.5549C32.4327 29.5179 31.4761 32.0402 29.8198 34.1059C28.9422 32.9858 27.8541 31.9916 27.2244 31.4171C25.9879 30.2891 23.4153 27.9416 21.5309 28.8449C20.5814 29.3 20.4313 30.2759 20.2725 31.3091C20.155 32.0732 20.0219 32.9391 19.5966 33.908C18.7008 35.9483 17.1116 37.089 15.4927 37.9924C13.9378 37.393 12.5312 36.493 11.3443 35.3641C12.8527 34.1561 13.8641 32.4604 13.975 30.891C14.023 30.2105 13.8805 29.8291 13.6998 29.3462C13.5484 28.9412 13.3598 28.437 13.1786 27.4912C13.1361 27.2695 13.1002 27.0555 13.0703 26.8459H24.7412C25.0649 26.8459 25.3272 26.5835 25.3272 26.2599C25.3272 25.9363 25.0649 25.674 24.7412 25.674H20.5859V23.0671H21.4094C23.5996 23.0671 25.3816 21.2852 25.3816 19.095V17.998C25.3816 17.5027 24.9785 17.0996 24.4831 17.0996H23.3862C21.5344 17.0996 19.9746 18.3736 19.5369 20.0911C18.8104 19.3012 17.7691 18.8051 16.6138 18.8051H15.517C15.0216 18.8051 14.6185 19.2081 14.6185 19.7035V20.8005C14.6185 22.9907 16.4005 24.7726 18.5907 24.7726H19.4141V25.674H8.65102V23.0671H9.47445C11.6647 23.0671 13.4466 21.2852 13.4466 19.095V17.998C13.4466 17.5027 13.0435 17.0996 12.5481 17.0996H11.4513C9.59938 17.0996 8.03969 18.3736 7.60195 20.0911C6.87547 19.3012 5.83414 18.8051 4.67891 18.8051H3.58203C3.08664 18.8051 2.68359 19.2081 2.68359 19.7035V20.8005C2.68359 22.9907 4.46547 24.7726 6.6557 24.7726H7.47922V25.674H6.84578C6.52211 25.674 6.25984 25.9363 6.25984 26.2599C6.25977 33.7973 12.6802 40 20 40C27.292 40 33.5595 33.9481 33.7362 26.5961C33.742 26.3548 33.6488 26.1173 33.4803 25.9447C33.2227 25.6807 32.869 25.6535 32.5209 25.6739V23.067H33.3444C35.5346 23.067 37.3165 21.2852 37.3165 19.0949V17.998C37.3164 17.5025 36.9134 17.0995 36.418 17.0995ZM30.3315 21.7544C30.1027 21.5255 29.7316 21.5255 29.5029 21.7544C29.274 21.9832 29.274 22.3541 29.5028 22.583L30.5202 23.6004C28.9787 23.5975 27.7253 22.3426 27.7253 20.8002V19.9767H28.5487C30.0909 19.9767 31.3459 21.23 31.3488 22.7716L30.3315 21.7544ZM20.5859 21.0716C20.5859 19.5276 21.8421 18.2713 23.3862 18.2713H24.2097V19.0948C24.2097 20.5919 23.0289 21.8182 21.5497 21.8916L22.3992 21.1394C22.6416 20.9248 22.6641 20.5545 22.4495 20.3123C22.2349 20.0699 21.8646 20.0474 21.6224 20.262L20.5859 21.1797V21.0716ZM18.3966 21.7544C18.1677 21.5255 17.7967 21.5255 17.5679 21.7544C17.3391 21.9832 17.3391 22.3542 17.5679 22.583L18.5853 23.6004C17.0437 23.5975 15.7904 22.3426 15.7904 20.8003V19.9768H16.6138C18.1562 19.9768 19.4111 21.2302 19.414 22.7717L18.3966 21.7544ZM8.65102 21.0716C8.65102 19.5276 9.90719 18.2713 11.4513 18.2713H12.2747V19.0948C12.2747 20.5919 11.0938 21.8182 9.61477 21.8916L10.4643 21.1394C10.7066 20.9248 10.7291 20.5545 10.5146 20.3123C10.3001 20.0699 9.92969 20.0474 9.6875 20.262L8.65109 21.1796L8.65102 21.0716ZM6.46164 21.7544C6.23273 21.5255 5.8618 21.5255 5.63297 21.7544C5.40414 21.9832 5.40414 22.3542 5.63297 22.583L6.65039 23.6004C5.10883 23.5975 3.85547 22.3426 3.85547 20.8002V19.9767H4.67891C6.22125 19.9767 7.47617 21.2301 7.47906 22.7716L6.46164 21.7544ZM10.5299 34.5141C8.72141 32.4419 7.58008 29.773 7.44516 26.8458H11.8885C11.9252 27.1269 11.9704 27.413 12.0276 27.7116C12.2274 28.7548 12.4441 29.3339 12.6022 29.7567C12.7628 30.1861 12.8361 30.3821 12.8059 30.8083C12.7169 32.0696 11.8209 33.5095 10.5299 34.5141ZM16.9995 38.4657C18.2262 37.6845 19.7719 36.4234 20.6695 34.379C21.1566 33.2692 21.3086 32.2812 21.4306 31.4872C21.5866 30.4727 21.6794 30.0732 22.0373 29.9016C23.2094 29.3398 25.6367 31.5549 26.4347 32.2829C27.0702 32.8627 28.197 33.892 29.03 35.0012C25.9146 38.2152 21.3266 39.5312 16.9995 38.4657ZM36.1445 19.0948C36.1445 20.5919 34.9637 21.8182 33.4845 21.8916L34.3341 21.1394C34.5764 20.9248 34.5989 20.5545 34.3844 20.3123C34.1698 20.0699 33.7995 20.0474 33.5573 20.262L32.5209 21.1797V21.0717C32.5209 19.5277 33.777 18.2714 35.3212 18.2714H36.1446V19.0948H36.1445ZM7.16234 14.3262H32.8377C33.0816 14.3262 33.3098 14.23 33.4804 14.0554C33.6488 13.8828 33.7421 13.6453 33.7362 13.4041C33.556 5.9082 27.4205 0 20 0C12.5209 0 6.44234 5.97297 6.26383 13.4039C6.25805 13.6452 6.35125 13.8827 6.51969 14.0553C6.69023 14.23 6.91844 14.3262 7.16234 14.3262ZM20 1.17188C25.6498 1.17188 30.7858 5.09773 32.1767 10.6125C29.4137 11.4766 27.4221 11.4462 26.2528 10.5195C25.8723 10.2183 25.5984 9.83422 25.3334 9.46289C24.8862 8.83617 24.3796 8.12586 23.3734 7.93031C22.3573 7.73313 21.5844 8.17031 20.963 8.52156C20.4734 8.79828 20.1591 8.96336 19.8856 8.87508C19.2282 8.66359 18.9821 7.08523 18.7215 5.41414C18.6775 5.13195 18.6322 4.8418 18.5835 4.54648C18.4009 3.43516 18.1913 2.38008 17.9473 1.33891C18.62 1.22875 19.3059 1.17188 20 1.17188ZM9.53578 6.77305C10.6273 7.53953 11.4391 8.54883 11.7481 9.54625C11.9263 10.1209 11.9088 10.6106 11.8702 11.1457C11.8468 11.4684 12.0896 11.749 12.4123 11.7723C12.7309 11.7953 13.0155 11.5543 13.039 11.2302C13.0846 10.5987 13.1058 9.9682 12.8676 9.19945C12.4801 7.94883 11.5336 6.74641 10.2323 5.82953C11.9236 3.74055 14.2384 2.25195 16.801 1.58227C17.0414 2.60547 17.2476 3.64281 17.4273 4.7368C17.4755 5.02898 17.5202 5.31578 17.5638 5.59469C17.909 7.80898 18.1817 9.55789 19.5263 9.99047C20.3027 10.241 20.9599 9.86953 21.5398 9.54172C22.0636 9.24563 22.5579 8.9657 23.1499 9.0807C23.6717 9.18211 23.9437 9.53266 24.3794 10.1434C24.6772 10.5609 25.0147 11.034 25.5251 11.4382C27.2838 12.831 30.035 12.5205 32.4139 11.7662C32.4857 12.2233 32.5334 12.6864 32.5548 13.1543H7.44508C7.55055 10.8502 8.27625 8.65766 9.53578 6.77305Z" fill="#6F9700"/>
</svg>
