<svg width="40" height="40" viewBox="0 0 40 40" fill="none" xmlns="http://www.w3.org/2000/svg">
<path d="M36.0642 38.828H30.0283L29.5771 33.127C29.5769 33.1248 29.5767 33.1225 29.5765 33.1203L29.2009 28.3744L31.1132 30.2865C31.6654 30.844 32.6071 30.8467 33.1612 30.2865L34.9348 28.5132C35.4994 27.9486 35.4993 27.0299 34.9347 26.4654L27.6452 19.1765C27.2735 18.8051 26.7287 18.664 26.2234 18.8082L24.715 19.2391L21.7345 16.259C21.8766 15.9879 21.9575 15.6799 21.9575 15.3532C21.9575 15.0266 21.8766 14.7186 21.7345 14.4474L24.715 11.4673L25.7417 11.7606C26.4563 12.7802 26.8856 13.9721 26.9845 15.2209L27.115 16.869C27.1402 17.1932 27.4263 17.4322 27.7454 17.407C28.068 17.3814 28.3089 17.0992 28.2833 16.7766L28.1528 15.1284C28.061 13.9696 27.7255 12.8524 27.1727 11.8447C27.3467 11.7731 27.5079 11.6672 27.6453 11.5298L34.9349 4.24113C35.4942 3.68693 35.4919 2.7448 34.9348 2.19318L33.1613 0.419869C32.6066 -0.140112 31.6676 -0.1398 31.1133 0.419869L23.8238 7.70853C23.6407 7.89159 23.5138 8.11677 23.4492 8.35852C22.3746 7.85792 21.2009 7.59664 19.9999 7.59664C18.7992 7.59664 17.6256 7.858 16.5506 8.35883C16.486 8.11701 16.3591 7.89175 16.176 7.70868L8.88652 0.419869C8.33178 -0.140112 7.39285 -0.1398 6.83857 0.419869L5.06495 2.19318C4.50426 2.7473 4.50395 3.68537 5.06502 4.24113L12.3545 11.5299C12.492 11.6672 12.6531 11.7731 12.8271 11.8447C12.2742 12.8524 11.9387 13.9696 11.847 15.1284L11.4554 20.0755L5.06495 26.4653C4.50043 27.0299 4.50036 27.9485 5.06502 28.5132L6.83849 30.2865C7.39066 30.8439 8.33232 30.8466 8.88644 30.2865L10.7989 28.3742L10.4232 33.1203C10.423 33.1225 10.4229 33.1247 10.4227 33.1269L9.97148 38.8279H3.93561C3.6119 38.8279 3.34961 39.0902 3.34961 39.4139C3.34961 39.7376 3.6119 39.9999 3.93561 39.9999H36.0641C36.3878 39.9999 36.6501 39.7376 36.6501 39.4139C36.6501 39.0902 36.3878 38.828 36.0642 38.828ZM24.5822 21.898L25.0185 20.3713L26.5455 19.9351C26.6417 19.9075 26.7457 19.9344 26.8167 20.0053L34.1061 27.294C34.2138 27.4016 34.2138 27.5768 34.1062 27.6844L32.3326 29.4576C32.2249 29.5654 32.0497 29.5653 31.9421 29.4576L24.6526 22.169C24.5817 22.0982 24.5547 21.9943 24.5822 21.898ZM23.8863 20.0679L23.4552 21.576C23.4211 21.6954 23.4035 21.8169 23.4006 21.9379H18.5504C18.2267 21.9379 17.9644 22.2002 17.9644 22.5239C17.9644 22.8476 18.2267 23.1099 18.5504 23.1099H23.9358L25.7425 24.9164H14.2572L16.176 22.9978C16.5476 22.6261 16.6888 22.0814 16.5444 21.576L16.1135 20.0679L19.094 17.0876C19.3651 17.2298 19.6731 17.3106 19.9999 17.3106C20.3266 17.3106 20.6347 17.2298 20.9058 17.0876L23.8863 20.0679ZM19.2143 15.3532C19.2143 14.9201 19.5667 14.5677 19.9999 14.5677C20.4331 14.5677 20.7855 14.9201 20.7855 15.3532C20.7855 15.7863 20.4331 16.1387 19.9999 16.1387C19.5667 16.1387 19.2143 15.7863 19.2143 15.3532ZM24.6525 8.53736L31.9421 1.24863C32.0123 1.17831 32.0946 1.16776 32.1373 1.16776C32.18 1.16776 32.2623 1.17831 32.3326 1.24863L34.1061 3.02194C34.1764 3.09226 34.1869 3.17438 34.1869 3.21712C34.1869 3.25986 34.1764 3.34205 34.1061 3.41229L26.8166 10.7009C26.7457 10.7718 26.6418 10.7989 26.5454 10.7712L25.0185 10.335L24.5822 8.80825C24.5547 8.71207 24.5816 8.60823 24.6525 8.53736ZM16.3555 9.79133C17.4526 9.12188 18.7077 8.76856 19.9999 8.76856C21.2926 8.76856 22.5477 9.1218 23.6442 9.79101L23.8864 10.6385L20.9058 13.6187C20.6347 13.4766 20.3267 13.3956 20 13.3956C19.6732 13.3956 19.3651 13.4765 19.0941 13.6187L16.1135 10.6385L16.3555 9.79133ZM5.89371 3.41237C5.82339 3.34213 5.81284 3.25993 5.81284 3.21719C5.81284 3.17446 5.82339 3.09234 5.89363 3.02202L7.66725 1.24871C7.73749 1.17839 7.81977 1.16784 7.86251 1.16784C7.90517 1.16784 7.98744 1.17839 8.05776 1.24871L15.3473 8.53752C15.4181 8.60823 15.445 8.71207 15.4174 8.80841H15.4175L15.2952 9.23666C15.2938 9.24111 15.2927 9.24564 15.2913 9.25017L14.9813 10.3351L13.4543 10.7714C13.358 10.799 13.2542 10.772 13.1831 10.7011L5.89371 3.41237ZM13.0153 15.221C13.1142 13.9721 13.5435 12.7801 14.2582 11.7606L15.2849 11.4673L18.2653 14.4474C18.1232 14.7185 18.0423 15.0265 18.0423 15.3532C18.0423 15.6799 18.1232 15.9879 18.2653 16.259L15.2849 19.2391L13.7764 18.8082C13.4201 18.7067 13.0445 18.7473 12.7233 18.9101L13.0153 15.221ZM8.05768 29.4577C7.95009 29.5655 7.77492 29.5654 7.66717 29.4577L5.89371 27.6845C5.78604 27.5769 5.78604 27.4017 5.89363 27.2941L13.1831 20.0054C13.2357 19.9529 13.3063 19.9245 13.3786 19.9245C13.4039 19.9245 13.4293 19.928 13.4543 19.9352L14.9813 20.3714L15.4175 21.8981C15.4451 21.9943 15.4181 22.0982 15.3474 22.1691L8.05768 29.4577ZM17.0624 38.828H11.1472L11.5476 33.7681H17.0624V38.828ZM17.0624 32.5961H11.6403L11.7832 30.7904H17.0818C17.0457 31.1783 17.1047 32.2271 17.0624 32.5961ZM21.7654 38.828H18.2345V31.1239C18.2345 30.1505 19.0264 29.3585 20.0001 29.3585C20.9735 29.3585 21.7655 30.1505 21.7655 31.1239V38.828H21.7654ZM19.9997 28.1866C18.9301 28.1866 17.9925 28.7615 17.4788 29.6184H11.8761L12.0755 27.0978L13.085 26.0884H26.9146L27.9241 27.0978L28.1236 29.6184H22.521C22.0073 28.7615 21.0696 28.1866 19.9997 28.1866ZM28.2164 30.7904L28.3594 32.5961H22.9373C22.9188 32.2205 22.9553 31.1182 22.9178 30.7904H28.2164ZM22.9374 38.828V33.7681H28.4522L28.8526 38.828H22.9374Z" fill="#6F9700"/>
</svg>
