<svg width="40" height="41" viewBox="0 0 40 41" fill="none" xmlns="http://www.w3.org/2000/svg">
<g clip-path="url(#clip0_12233_803)">
<path d="M32.3565 33.5925C32.3565 33.9162 32.6187 34.1784 32.9424 34.1784C34.6945 34.1784 35.6181 33.7324 36.4331 33.3389C37.203 32.9671 37.9302 32.6159 39.4141 32.6159C39.7377 32.6159 40 32.3537 40 32.03C40 31.7063 39.7377 31.444 39.4141 31.444C37.6621 31.444 36.7384 31.8901 35.9235 32.2836C35.1536 32.6554 34.4263 33.0065 32.9424 33.0065C32.6188 33.0065 32.3565 33.2688 32.3565 33.5925ZM0.585938 32.6159C2.06961 32.6159 2.7968 32.9671 3.56664 33.3389C4.38156 33.7324 5.30523 34.1784 7.05711 34.1784C8.80898 34.1784 9.73266 33.7324 10.5476 33.3389C11.3174 32.9671 12.0446 32.6159 13.5284 32.6159C15.012 32.6159 15.7392 32.9671 16.5091 33.3389C17.324 33.7324 18.2476 34.1784 19.9995 34.1784C21.7514 34.1784 22.675 33.7324 23.49 33.3389C24.2598 32.9671 24.987 32.6159 26.4708 32.6159C28.1764 32.6159 28.8264 33.0623 29.8955 33.5487C30.1902 33.6827 30.5376 33.5519 30.6713 33.2573C30.805 32.9627 30.6746 32.6154 30.3799 32.4816C29.2297 31.9597 28.5046 31.444 26.4709 31.444C24.719 31.444 23.7954 31.8901 22.9804 32.2836C22.2105 32.6554 21.4833 33.0065 19.9995 33.0065C18.5159 33.0065 17.7887 32.6554 17.0188 32.2836C16.2039 31.8901 15.2803 31.444 13.5284 31.444C11.7766 31.444 10.8529 31.8901 10.038 32.2836C9.26812 32.6554 8.54094 33.0065 7.05719 33.0065C5.57344 33.0065 4.84625 32.6554 4.07641 32.2836C3.26141 31.89 2.33781 31.444 0.585938 31.444C0.262266 31.444 0 31.7063 0 32.03C0 32.3537 0.262266 32.6159 0.585938 32.6159ZM39.4141 37.593C37.6621 37.593 36.7384 38.039 35.9235 38.4325C35.1536 38.8043 34.4263 39.1555 32.9424 39.1555C31.4586 39.1555 30.7313 38.8043 29.9615 38.4325C29.1465 38.039 28.2228 37.593 26.4708 37.593C24.7189 37.593 23.7953 38.039 22.9803 38.4325C22.2105 38.8043 21.4832 39.1555 19.9995 39.1555C18.5158 39.1555 17.7886 38.8043 17.0187 38.4325C16.2038 38.039 15.2802 37.593 13.5284 37.593C11.7765 37.593 10.8528 38.039 10.0379 38.4325C9.26805 38.8043 8.54086 39.1555 7.05711 39.1555C5.57336 39.1555 4.84617 38.8043 4.07633 38.4325C3.26141 38.039 2.33781 37.593 0.585938 37.593C0.262266 37.593 0 37.8552 0 38.1789C0 38.5026 0.262266 38.7648 0.585938 38.7648C2.06961 38.7648 2.7968 39.116 3.56664 39.4878C4.38156 39.8813 5.30523 40.3273 7.05711 40.3273C8.80898 40.3273 9.73266 39.8813 10.5476 39.4878C11.3174 39.116 12.0446 38.7648 13.5284 38.7648C15.012 38.7648 15.7392 39.116 16.5091 39.4878C17.324 39.8813 18.2476 40.3273 19.9995 40.3273C21.7514 40.3273 22.675 39.8813 23.49 39.4878C24.2598 39.116 24.987 38.7648 26.4708 38.7648C27.9546 38.7648 28.682 39.116 29.4519 39.4878C30.2668 39.8813 31.1905 40.3273 32.9424 40.3273C34.6945 40.3273 35.6181 39.8813 36.4331 39.4878C37.203 39.116 37.9302 38.7648 39.4141 38.7648C39.7377 38.7648 40 38.5026 40 38.1789C40 37.8552 39.7377 37.593 39.4141 37.593ZM17.3038 16.0741C17.7676 16.3542 18.2748 16.6426 18.7395 16.9076C18.4789 17.5315 18.2108 18.1431 17.9662 18.7757C17.7738 19.2732 17.9937 19.8252 18.478 20.0597C18.8969 20.2626 19.3314 20.1713 19.6848 19.8368C20.7679 18.8116 21.8651 17.7747 22.9468 16.7485C23.1982 16.51 23.32 16.1862 23.2812 15.86C23.2419 15.5307 23.0445 15.2413 22.7397 15.0661C22.2716 14.7969 21.8046 14.5257 21.3373 14.2551C21.3375 14.2548 21.3376 14.2545 21.3377 14.2543C21.597 13.6447 21.8651 13.0145 22.1096 12.3833C22.2303 12.0715 22.1889 11.7212 21.9988 11.4462C21.6203 10.8983 20.8796 10.8576 20.3901 11.3232C19.3055 12.3547 18.2161 13.381 17.1296 14.4105C16.8811 14.646 16.7587 14.9673 16.7938 15.2922C16.8285 15.6143 17.0145 15.8994 17.3038 16.0741ZM20.7702 12.5785C20.5431 13.1339 20.3095 13.6733 20.0787 14.2208C19.9468 14.5335 20.0616 14.8715 20.3581 15.0427C20.9145 15.364 21.468 15.6861 22.0254 16.0072C21.1798 16.8093 19.3139 18.5744 19.3139 18.5744C19.3161 18.569 19.3184 18.5637 19.3207 18.5583C19.5484 18.0195 19.7705 17.4768 19.9979 16.9385C20.1299 16.6258 20.0143 16.2879 19.7167 16.1168C19.1609 15.7972 18.6025 15.485 18.0484 15.1544C18.9552 14.2952 19.8642 13.4384 20.7702 12.5785ZM5.6375 17.7687H12.6617C12.7989 18.2305 12.978 18.6743 13.1953 19.0955L10.5356 21.7552C10.032 22.2589 9.76414 22.9562 9.80086 23.6689L9.96016 26.7122C9.98891 27.428 10.911 27.7916 11.4174 27.273L16.356 22.3344C16.7811 22.567 17.2305 22.7605 17.6991 22.9103V26.6282C17.6991 27.3404 18.0029 28.023 18.5328 28.5011L20.7985 30.5417C21.3294 31.0286 22.2309 30.6265 22.2241 29.9063V22.9572C22.7039 22.8148 23.1641 22.6268 23.5999 22.3982L26.2105 25.0088C26.7143 25.5127 27.4145 25.781 28.1242 25.7436L31.1677 25.5843C31.8851 25.5551 32.2432 24.6298 31.7284 24.127L26.8171 19.2158C27.0506 18.782 27.2438 18.3236 27.3915 17.8453H31.0835C31.7959 17.8453 32.4784 17.5415 32.9564 17.0116L34.997 14.7459C35.487 14.2115 35.0764 13.3126 34.3624 13.3194H27.3928C27.2477 12.8483 27.0583 12.3964 26.8298 11.9683L29.4643 9.33373C29.9679 8.83006 30.2358 8.13272 30.1991 7.42006L30.0398 4.3767C30.0102 3.64998 29.0828 3.30366 28.5826 3.816L23.6234 8.77436C23.2038 8.55241 22.7616 8.36787 22.3008 8.22584V4.46092C22.3008 3.74866 21.997 3.06608 21.4671 2.58795L19.2013 0.547249C18.6623 0.052562 17.7695 0.465765 17.7758 1.18202V5.93662C17.7758 6.2603 18.038 6.52256 18.3617 6.52256C18.6854 6.52256 18.9477 6.2603 18.9477 5.93662V1.89592L20.6825 3.45842C20.9662 3.71436 21.1289 4.07975 21.1289 4.46092V7.96389C20.7724 7.91303 20.4084 7.88623 20.038 7.88623C18.7523 7.88623 17.5394 8.20373 16.4729 8.76381L13.7893 6.08022C13.2857 5.5767 12.5874 5.30889 11.8756 5.34537L8.83203 5.50467C8.09914 5.53342 7.7543 6.45366 8.27148 6.96202L13.2572 11.9477C13.036 12.3589 12.8513 12.7923 12.7071 13.2437H8.91641C8.20406 13.2437 7.52156 13.5475 7.04352 14.0773L5.00281 16.3431C4.52047 16.8662 4.90492 17.7762 5.6375 17.7687ZM27.6546 14.4913H33.6493L32.0859 16.227C31.8301 16.5107 31.4648 16.6734 31.0836 16.6734H27.654C27.7051 16.3162 27.732 15.9512 27.732 15.5801C27.732 15.2105 27.7052 14.8472 27.6546 14.4913ZM21.0523 29.193L19.3175 27.6305C19.0338 27.3746 18.8711 27.0092 18.8711 26.6281V23.1857C19.2517 23.2439 19.6415 23.274 20.0381 23.274C20.3819 23.274 20.7204 23.251 21.0523 23.2071V29.193ZM30.3954 24.4513L28.0637 24.5733C27.682 24.5939 27.3088 24.4497 27.0394 24.1801L24.6179 21.7587C25.2042 21.3229 25.7264 20.8058 26.1681 20.2241L30.3954 24.4513ZM28.9068 5.14905L29.0288 7.48076C29.0484 7.86225 28.9051 8.23569 28.6356 8.50514L26.184 10.9568C25.7441 10.3735 25.2235 9.85436 24.6385 9.41662L28.9068 5.14905ZM20.038 9.05803C23.6343 9.05803 26.5601 11.9838 26.5601 15.5801C26.5601 19.1763 23.6343 22.1021 20.038 22.1021C16.4418 22.1021 13.516 19.1763 13.516 15.5801C13.516 11.9838 16.4418 9.05803 20.038 9.05803ZM9.60453 6.63764L11.9362 6.51561C12.3181 6.49577 12.6912 6.63936 12.9606 6.90889L15.4554 9.40366C14.8693 9.83967 14.3473 10.3571 13.9059 10.9389L9.60453 6.63764ZM13.8295 20.1187C14.2614 20.708 14.7751 21.2338 15.3538 21.6793L11.0933 25.9398L10.9713 23.6082C10.9516 23.2267 11.0949 22.8533 11.3645 22.5838L13.8295 20.1187ZM7.91406 14.8619C8.16984 14.5783 8.53523 14.4156 8.91641 14.4156H12.4322C12.3743 14.7955 12.3441 15.1844 12.3441 15.5801C12.3441 15.9247 12.3673 16.264 12.4114 16.5969H6.35141L7.91406 14.8619Z" fill="#6F9700"/>
</g>
<defs>
<clipPath id="clip0_12233_803">
<rect width="40" height="40" fill="white" transform="translate(0 0.329102)"/>
</clipPath>
</defs>
</svg>
