<?xml version="1.0" encoding="utf-8"?>
<!-- Generator: Adobe Illustrator 24.2.3, SVG Export Plug-In . SVG Version: 6.00 Build 0)  -->
<svg version="1.1" id="Layer_1" xmlns="http://www.w3.org/2000/svg" xmlns:xlink="http://www.w3.org/1999/xlink" x="0px" y="0px"
	 viewBox="0 0 68.1 63.4" style="enable-background:new 0 0 68.1 63.4;" xml:space="preserve">
<style type="text/css">
	.st0{clip-path:url(#SVGID_2_);}
	.st1{fill:url(#SVGID_3_);}
</style>
<g>
	<defs>
		<rect id="SVGID_1_" x="5.9" y="6" width="56.4" height="51.4"/>
	</defs>
	<clipPath id="SVGID_2_">
		<use xlink:href="#SVGID_1_"  style="overflow:visible;"/>
	</clipPath>
	<g class="st0">
		
			<linearGradient id="SVGID_3_" gradientUnits="userSpaceOnUse" x1="34.0534" y1="98.7283" x2="34.0534" y2="47.3305" gradientTransform="matrix(1 0 0 -1 0 104.7059)">
			<stop  offset="0" style="stop-color:#18EEF5"/>
			<stop  offset="1" style="stop-color:#2283FF"/>
		</linearGradient>
		<path class="st1" d="M7.1,33.8c0.6,0,1.2-0.5,1.2-1.1c0-8.9,7.9-16.1,17.6-16.1c9.5,0,12.9,4.9,15.5,8.9c1.6,2.3,2.9,4.3,5.2,5
			c0.6,0.2,1.3-0.1,1.5-0.7c0.2-0.6-0.1-1.2-0.8-1.3c-1.5-0.4-2.6-2.1-4-4.1c-2.8-4.2-6.7-9.9-17.5-9.9c-11,0-20,8.2-20,18.2
			C5.9,33.3,6.5,33.8,7.1,33.8z M7.7,18.7c0.6,0.3,1.3,0.1,1.6-0.4c1-1.5,6-5.9,15.4-5.9c9,0,15.4,4.2,16.6,5.9
			c0.2,0.3,0.6,0.5,1,0.5c0.2,0,0.4,0,0.6-0.2c0.6-0.3,0.7-1,0.4-1.5c-1.6-2.4-8.7-6.9-18.6-6.9c-10.5,0-16.2,5-17.4,6.9
			C6.9,17.7,7.1,18.4,7.7,18.7z M8.3,41.3c0.2,0,0.4,0,0.5-0.1c0.6-0.3,0.8-0.9,0.5-1.4c-0.4-0.8-1-2.2-1-2.7c0-0.6-0.5-1.1-1.2-1.1
			S5.9,36.4,5.9,37c0,1.3,1.1,3.3,1.3,3.7C7.4,41.1,7.9,41.3,8.3,41.3z M13.5,36c-1-3-0.6-6.2,1.1-9c1.7-2.8,4.4-4.8,7.7-5.6
			c6.8-1.7,13.9,1.8,15.9,7.9c0,0.1,0.1,0.2,0.1,0.2c0.1,0.2,0.3,0.4,4.4,3.6c0.5,0.4,1.2,0.3,1.7-0.1c0.4-0.5,0.3-1.1-0.2-1.5
			c-2.9-2.2-3.7-2.8-3.9-3c-2.5-7.1-10.9-11.2-18.7-9.1c-3.9,1-7.2,3.4-9.1,6.6c-2,3.3-2.4,7-1.3,10.6c1.9,6.1-2.2,7.8-3.5,8.2
			c-0.6,0.2-1,0.8-0.8,1.3c0.2,0.5,0.6,0.8,1.1,0.8c0.1,0,0.2,0,0.3,0C12,45.8,15.5,42.3,13.5,36z M45.9,24.5
			c0.2,0.5,0.6,0.7,1.1,0.7c0.1,0,0.2,0,0.4-0.1c0.6-0.2,1-0.8,0.8-1.3c-0.6-1.8-2.4-4.4-2.5-4.5c-0.3-0.5-1.1-0.7-1.6-0.4
			c-0.6,0.3-0.7,1-0.4,1.5C43.7,20.5,45.4,23,45.9,24.5z M14.6,10.2c0.5-0.2,1-0.4,1.4-0.6c1.8-0.8,3-1.4,8.7-1.4
			c6.3,0,8.7,0.8,11.2,1.6c0.4,0.2,0.9,0.3,1.4,0.5c0.1,0,0.3,0.1,0.4,0.1c0.5,0,0.9-0.3,1.1-0.7C39,9,38.6,8.4,38,8.2
			c-0.5-0.1-0.9-0.3-1.3-0.4C34.1,6.9,31.5,6,24.7,6C18.5,6,17,6.7,15,7.6c-0.4,0.2-0.8,0.4-1.3,0.6c-0.6,0.2-0.9,0.9-0.6,1.4
			C13.3,10.2,14,10.4,14.6,10.2z M36.6,48.9c-6-4.4-12.4-9.7-14.1-15.3c-0.3-0.8-0.2-1.7,0.3-2.4c0.5-0.8,1.2-1.3,2.1-1.5
			c0.9-0.2,1.9-0.1,2.7,0.3c0.8,0.4,1.4,1.1,1.7,1.9c0.8,2.5,3.5,5.5,8.4,9.4c0.5,0.4,1.2,0.3,1.7-0.1c0.4-0.4,0.4-1.1-0.1-1.5
			c-5.5-4.5-7.2-7-7.7-8.4c-0.4-1.4-1.4-2.5-2.8-3.2c-1.4-0.7-2.9-0.9-4.5-0.5c-1.5,0.4-2.8,1.3-3.5,2.6c-0.8,1.3-0.9,2.7-0.5,4.1
			c1.9,6.1,8.6,11.7,14.9,16.4c0.2,0.2,0.5,0.2,0.7,0.2c0.3,0,0.7-0.1,0.9-0.4C37.2,50,37.2,49.3,36.6,48.9z M27,32.4
			c-0.2-0.6-0.8-0.9-1.5-0.7c-0.6,0.2-1,0.8-0.8,1.3c1.9,5.9,8.9,10.7,13.2,13.7l1.3-1.8C35.3,42.2,28.7,37.6,27,32.4z M57.3,50.6
			l-3.5-0.8l-0.1-0.5c0.9-0.9,1.6-2.1,1.8-3.3c0.6-0.3,1.1-0.9,1.2-1.5l0.3-1.9c0.1-0.6-0.1-1.1-0.5-1.6c-0.1-0.1-0.3-0.2-0.4-0.3
			l0.1-1.1l0.2-0.2c0.6-0.6,1.4-1.8,0.1-3.6c-0.6-0.9-1.9-1.9-4.4-1.9c-0.7,0-2.4,0-4.1,0.9c-4.8,0.2-5.4,2.5-5.4,4.3
			c0,0.4,0.1,1,0.1,1.6c-0.2,0.1-0.3,0.2-0.5,0.4c-0.4,0.4-0.6,1-0.5,1.6l0.3,1.9c0.1,0.7,0.6,1.3,1.3,1.6c0.3,1.2,0.9,2.3,1.7,3.2
			l-0.2,0.6l-3.5,0.8c-2.9,0.7-4.8,3-4.8,5.7c0,0.3,0.1,0.6,0.3,0.8c0.2,0.2,0.5,0.3,0.8,0.3l23.5,0c0.6,0,1.2-0.5,1.2-1.1
			C62.2,53.6,60.2,51.3,57.3,50.6z M38.9,55.2c0.4-1.2,1.5-2.2,2.9-2.5l4.2-1c0.4-0.1,0.7-0.4,0.9-0.8l0.5-1.8c0.1-0.4,0-0.8-0.3-1
			c-0.9-0.8-1.5-1.9-1.6-3.1c0-0.6-0.6-0.9-1.2-0.9l-0.3-1.7c0.3,0,0.7-0.1,0.9-0.4c0.2-0.2,0.3-0.5,0.3-0.8
			c-0.1-0.6-0.2-1.8-0.2-2.2c0-1.1,0-2.2,3.4-2.2c0.2,0,0.5-0.1,0.7-0.2c1.1-0.7,2.4-0.7,3-0.7c1.8,0,2.3,0.7,2.5,0.9
			c0.5,0.7,0.3,0.9,0.2,1L54,38.3c-0.2,0.2-0.3,0.4-0.3,0.7l-0.1,2.3c0,0.3,0,0.5,0.2,0.7c0.2,0.2,0.4,0.3,0.8,0.3l-0.2,1.7
			c-0.6,0-1.1,0.4-1.2,1c-0.1,1.2-0.8,2.4-1.7,3.1c-0.3,0.3-0.5,0.7-0.4,1.1l0.5,1.7c0.1,0.4,0.4,0.7,0.9,0.8l4.2,1
			c1.4,0.3,2.5,1.3,2.9,2.5L38.9,55.2z M32.9,52.4c-1.2-1.4-2.9-3.6-5.9-3.6c-4,0-4.6,6.2-4.7,7.4c0,0.6,0.5,1.1,1.1,1.1
			c0,0,0,0,0.1,0c0.6,0,1.1-0.4,1.2-1c0.2-2.2,1.1-5.4,2.4-5.4c1.7,0,3,1.5,4,2.8c0.4,0.5,0.7,0.9,1.1,1.2c0.5,0.4,1.2,0.4,1.7,0
			s0.5-1.1,0-1.5C33.5,53.2,33.2,52.8,32.9,52.4z M22.3,43.1c-0.2-0.6-0.9-0.9-1.5-0.7c-0.6,0.2-1,0.8-0.8,1.3c1,2.9-1,8.5-3.9,9.4
			c-0.6,0.2-1,0.8-0.8,1.3c0.2,0.5,0.6,0.7,1.1,0.7c0.1,0,0.2,0,0.4-0.1C21.4,53.8,23.6,46.7,22.3,43.1z M18,34.9
			c-1-4.2,1.4-8.2,5.6-9.3c4.4-1.1,8.9,1.2,10.2,5.1c0.4,1.2,1.4,2.7,5.2,5.7c0.5,0.4,1.2,0.4,1.7-0.1c0.4-0.4,0.4-1.1-0.1-1.5
			c-3.6-2.9-4.3-4-4.5-4.7C34.4,25,28.6,22,23,23.5c-5.4,1.4-8.5,6.5-7.3,11.9c2.4,9.8,0.6,12.1-4.3,13.5c-0.6,0.2-1,0.8-0.8,1.3
			c0.2,0.5,0.6,0.8,1.1,0.8c0.1,0,0.2,0,0.3-0.1C19,49,20.4,44.9,18,34.9z"/>
	</g>
</g>
</svg>
