<?xml version="1.0" encoding="utf-8"?>
<!-- Generator: Adobe Illustrator 24.2.3, SVG Export Plug-In . SVG Version: 6.00 Build 0)  -->
<svg version="1.1" id="Layer_1" xmlns="http://www.w3.org/2000/svg" xmlns:xlink="http://www.w3.org/1999/xlink" x="0px" y="0px"
	 viewBox="0 0 512 512" style="enable-background:new 0 0 512 512;" xml:space="preserve">
<style type="text/css">
	.st0{fill:url(#SVGID_1_);}
	.st1{fill:url(#SVGID_2_);}
	.st2{fill:url(#SVGID_3_);}
	.st3{fill:url(#SVGID_4_);}
	.st4{fill:url(#SVGID_5_);}
	.st5{fill:url(#SVGID_6_);}
	.st6{fill:url(#SVGID_7_);}
	.st7{fill:url(#SVGID_8_);}
	.st8{fill:url(#SVGID_9_);}
	.st9{fill:url(#SVGID_10_);}
	.st10{fill:url(#SVGID_11_);}
	.st11{fill:url(#SVGID_12_);}
	.st12{fill:url(#SVGID_13_);}
	.st13{fill:url(#SVGID_14_);}
	.st14{fill:url(#SVGID_15_);}
	.st15{fill:url(#SVGID_16_);}
	.st16{fill:url(#SVGID_17_);}
	.st17{fill:url(#SVGID_18_);}
	.st18{fill:url(#SVGID_19_);}
</style>
<g id="Layer_12">
	
		<linearGradient id="SVGID_1_" gradientUnits="userSpaceOnUse" x1="-215.625" y1="812.045" x2="-215.625" y2="873.854" gradientTransform="matrix(8 0 0 -8 1981 7038)">
		<stop  offset="0" style="stop-color:#218AFE"/>
		<stop  offset="1" style="stop-color:#18EEF5"/>
	</linearGradient>
	<path class="st0" d="M461.4,293.1L416,252.4V152c0-13.2-10.8-24-24-24H272v-24c0-13.2-10.8-24-24-24h-8V24c0-4.4-3.6-8-8-8
		c-1.4,0-2.8,0.4-4.1,1.1l-22.6,13.5l-22.6-13.5c-2.5-1.5-5.7-1.5-8.2,0l-22.6,13.5l-22.6-13.5c-2.5-1.5-5.7-1.5-8.2,0L98.6,30.6
		L76.1,17.1c-3.8-2.3-8.7-1-11,2.8C64.4,21.2,64,22.6,64,24v56h-8c-13.2,0-24,10.8-24,24v368c0,13.2,10.8,24,24,24h192
		c13.2,0,24-10.8,24-24v-72h63c-3.2,21.5,1.7,43.5,13.8,61.5l3.2,4.9V488c0,4.4,3.6,8,8,8s8-3.6,8-8v-24c0-1.6-0.5-3.1-1.4-4.4
		l-4.6-7c-10.4-15.4-14.2-34.4-10.8-52.6h31.5c1.6,8.2,5.6,15.8,11.5,21.7c1.5,1.5,3.6,2.3,5.7,2.3c2.1,0,4.2-0.9,5.7-2.3
		c3.1-3.1,3.1-8.2,0-11.4c-4.9-4.8-7.6-11.4-7.6-18.2v-0.2c0-6.8,2.7-13.4,7.6-18.2l8-8c3.1-3.1,3.1-8.2,0-11.4l-39.8-39.8
		c-3.3-3-3.8-8-1.1-11.6c1.5-1.8,3.7-2.8,6-2.7c2.1,0,4.2,0.8,5.7,2.3l50.1,50.1c3.1,3.1,8.2,3.1,11.4,0s3.1-8.2,0-11.4L416,311.4
		v-37.5l34.7,31.1c8.4,7.6,13.3,18.4,13.3,29.8V488c0,4.4,3.6,8,8,8s8-3.6,8-8V334.8C480,318.9,473.2,303.7,461.4,293.1L461.4,293.1
		z M80,38.2l14.5,8.7c2.5,1.5,5.7,1.5,8.2,0l22.6-13.5l22.6,13.5c2.5,1.5,5.7,1.5,8.2,0l22.5-13.5l22.6,13.5c2.5,1.5,5.7,1.5,8.2,0
		l14.6-8.7V160H80V38.2z M256,472c0,4.4-3.6,8-8,8H56c-4.4,0-8-3.6-8-8V104c0-4.4,3.6-8,8-8h8v72c0,4.4,3.6,8,8,8h160
		c4.4,0,8-3.6,8-8V96h8c4.4,0,8,3.6,8,8V472z M288,384h-16V144h16V384z M400,295.4l-4.2-4.3c-10.1-9.3-25.8-8.8-35.1,1.3
		c-8.2,9.9-7.4,24.5,1.8,33.4l34.2,34.2l-2.4,2.3c-5.9,5.9-9.9,13.5-11.5,21.7H304V144h88c4.4,0,8,3.6,8,8V295.4z"/>
	
		<linearGradient id="SVGID_2_" gradientUnits="userSpaceOnUse" x1="-228.625" y1="812.045" x2="-228.625" y2="873.854" gradientTransform="matrix(8 0 0 -8 1981 7038)">
		<stop  offset="0" style="stop-color:#218AFE"/>
		<stop  offset="1" style="stop-color:#18EEF5"/>
	</linearGradient>
	<path class="st1" d="M160,288h-16c-8.8,0-16,7.2-16,16v16c0,8.8,7.2,16,16,16h16c8.8,0,16-7.2,16-16v-16
		C176,295.2,168.8,288,160,288z M144,320v-16h16v16H144z"/>
	
		<linearGradient id="SVGID_3_" gradientUnits="userSpaceOnUse" x1="-236.625" y1="812.045" x2="-236.625" y2="873.854" gradientTransform="matrix(8 0 0 -8 1981 7038)">
		<stop  offset="0" style="stop-color:#218AFE"/>
		<stop  offset="1" style="stop-color:#18EEF5"/>
	</linearGradient>
	<path class="st2" d="M96,288H80c-8.8,0-16,7.2-16,16v16c0,8.8,7.2,16,16,16h16c8.8,0,16-7.2,16-16v-16C112,295.2,104.8,288,96,288z
		 M80,320v-16h16v16H80z"/>
	
		<linearGradient id="SVGID_4_" gradientUnits="userSpaceOnUse" x1="-220.625" y1="812.045" x2="-220.625" y2="873.854" gradientTransform="matrix(8 0 0 -8 1981 7038)">
		<stop  offset="0" style="stop-color:#218AFE"/>
		<stop  offset="1" style="stop-color:#18EEF5"/>
	</linearGradient>
	<path class="st3" d="M224,288h-16c-8.8,0-16,7.2-16,16v16c0,8.8,7.2,16,16,16h16c8.8,0,16-7.2,16-16v-16
		C240,295.2,232.8,288,224,288z M208,320v-16h16v16H208z"/>
	
		<linearGradient id="SVGID_5_" gradientUnits="userSpaceOnUse" x1="-228.625" y1="812.045" x2="-228.625" y2="873.854" gradientTransform="matrix(8 0 0 -8 1981 7038)">
		<stop  offset="0" style="stop-color:#218AFE"/>
		<stop  offset="1" style="stop-color:#18EEF5"/>
	</linearGradient>
	<path class="st4" d="M160,352h-16c-8.8,0-16,7.2-16,16v16c0,8.8,7.2,16,16,16h16c8.8,0,16-7.2,16-16v-16
		C176,359.2,168.8,352,160,352z M144,384v-16h16v16H144z"/>
	
		<linearGradient id="SVGID_6_" gradientUnits="userSpaceOnUse" x1="-236.625" y1="812.045" x2="-236.625" y2="873.854" gradientTransform="matrix(8 0 0 -8 1981 7038)">
		<stop  offset="0" style="stop-color:#218AFE"/>
		<stop  offset="1" style="stop-color:#18EEF5"/>
	</linearGradient>
	<path class="st5" d="M96,352H80c-8.8,0-16,7.2-16,16v16c0,8.8,7.2,16,16,16h16c8.8,0,16-7.2,16-16v-16C112,359.2,104.8,352,96,352z
		 M80,384v-16h16v16H80z"/>
	
		<linearGradient id="SVGID_7_" gradientUnits="userSpaceOnUse" x1="-220.625" y1="812.045" x2="-220.625" y2="873.854" gradientTransform="matrix(8 0 0 -8 1981 7038)">
		<stop  offset="0" style="stop-color:#218AFE"/>
		<stop  offset="1" style="stop-color:#18EEF5"/>
	</linearGradient>
	<path class="st6" d="M224,352h-16c-8.8,0-16,7.2-16,16v16c0,8.8,7.2,16,16,16h16c8.8,0,16-7.2,16-16v-16
		C240,359.2,232.8,352,224,352z M208,384v-16h16v16H208z"/>
	
		<linearGradient id="SVGID_8_" gradientUnits="userSpaceOnUse" x1="-228.625" y1="812.045" x2="-228.625" y2="873.854" gradientTransform="matrix(8 0 0 -8 1981 7038)">
		<stop  offset="0" style="stop-color:#218AFE"/>
		<stop  offset="1" style="stop-color:#18EEF5"/>
	</linearGradient>
	<path class="st7" d="M160,416h-16c-8.8,0-16,7.2-16,16v16c0,8.8,7.2,16,16,16h16c8.8,0,16-7.2,16-16v-16
		C176,423.2,168.8,416,160,416z M144,448v-16h16v16H144z"/>
	
		<linearGradient id="SVGID_9_" gradientUnits="userSpaceOnUse" x1="-236.625" y1="812.045" x2="-236.625" y2="873.854" gradientTransform="matrix(8 0 0 -8 1981 7038)">
		<stop  offset="0" style="stop-color:#218AFE"/>
		<stop  offset="1" style="stop-color:#18EEF5"/>
	</linearGradient>
	<path class="st8" d="M96,416H80c-8.8,0-16,7.2-16,16v16c0,8.8,7.2,16,16,16h16c8.8,0,16-7.2,16-16v-16C112,423.2,104.8,416,96,416z
		 M80,448v-16h16v16H80z"/>
	
		<linearGradient id="SVGID_10_" gradientUnits="userSpaceOnUse" x1="-220.625" y1="812.045" x2="-220.625" y2="873.854" gradientTransform="matrix(8 0 0 -8 1981 7038)">
		<stop  offset="0" style="stop-color:#218AFE"/>
		<stop  offset="1" style="stop-color:#18EEF5"/>
	</linearGradient>
	<path class="st9" d="M224,416h-16c-8.8,0-16,7.2-16,16v16c0,8.8,7.2,16,16,16h16c8.8,0,16-7.2,16-16v-16
		C240,423.2,232.8,416,224,416z M208,448v-16h16v16H208z"/>
	
		<linearGradient id="SVGID_11_" gradientUnits="userSpaceOnUse" x1="-228.625" y1="812.045" x2="-228.625" y2="873.854" gradientTransform="matrix(8 0 0 -8 1981 7038)">
		<stop  offset="0" style="stop-color:#218AFE"/>
		<stop  offset="1" style="stop-color:#18EEF5"/>
	</linearGradient>
	<path class="st10" d="M232,192H72c-4.4,0-8,3.6-8,8v64c0,4.4,3.6,8,8,8h160c4.4,0,8-3.6,8-8v-64C240,195.6,236.4,192,232,192z
		 M224,256H80v-48h144V256z"/>
	
		<linearGradient id="SVGID_12_" gradientUnits="userSpaceOnUse" x1="-226.125" y1="812.045" x2="-226.125" y2="873.854" gradientTransform="matrix(8 0 0 -8 1981 7038)">
		<stop  offset="0" style="stop-color:#218AFE"/>
		<stop  offset="1" style="stop-color:#18EEF5"/>
	</linearGradient>
	<path class="st11" d="M144,80h56c4.4,0,8-3.6,8-8s-3.6-8-8-8h-56c-4.4,0-8,3.6-8,8S139.6,80,144,80z"/>
	
		<linearGradient id="SVGID_13_" gradientUnits="userSpaceOnUse" x1="-234.125" y1="812.045" x2="-234.125" y2="873.854" gradientTransform="matrix(8 0 0 -8 1981 7038)">
		<stop  offset="0" style="stop-color:#218AFE"/>
		<stop  offset="1" style="stop-color:#18EEF5"/>
	</linearGradient>
	<path class="st12" d="M104,80h8c4.4,0,8-3.6,8-8s-3.6-8-8-8h-8c-4.4,0-8,3.6-8,8S99.6,80,104,80z"/>
	
		<linearGradient id="SVGID_14_" gradientUnits="userSpaceOnUse" x1="-223.625" y1="812.045" x2="-223.625" y2="873.854" gradientTransform="matrix(8 0 0 -8 1981 7038)">
		<stop  offset="0" style="stop-color:#218AFE"/>
		<stop  offset="1" style="stop-color:#18EEF5"/>
	</linearGradient>
	<path class="st13" d="M200,96h-16c-4.4,0-8,3.6-8,8s3.6,8,8,8h16c4.4,0,8-3.6,8-8S204.4,96,200,96z"/>
	
		<linearGradient id="SVGID_15_" gradientUnits="userSpaceOnUse" x1="-231.625" y1="812.045" x2="-231.625" y2="873.854" gradientTransform="matrix(8 0 0 -8 1981 7038)">
		<stop  offset="0" style="stop-color:#218AFE"/>
		<stop  offset="1" style="stop-color:#18EEF5"/>
	</linearGradient>
	<path class="st14" d="M104,112h48c4.4,0,8-3.6,8-8s-3.6-8-8-8h-48c-4.4,0-8,3.6-8,8S99.6,112,104,112z"/>
	
		<linearGradient id="SVGID_16_" gradientUnits="userSpaceOnUse" x1="-223.625" y1="812.045" x2="-223.625" y2="873.854" gradientTransform="matrix(8 0 0 -8 1981 7038)">
		<stop  offset="0" style="stop-color:#218AFE"/>
		<stop  offset="1" style="stop-color:#18EEF5"/>
	</linearGradient>
	<path class="st15" d="M200,128h-16c-4.4,0-8,3.6-8,8s3.6,8,8,8h16c4.4,0,8-3.6,8-8S204.4,128,200,128z"/>
	
		<linearGradient id="SVGID_17_" gradientUnits="userSpaceOnUse" x1="-231.625" y1="812.045" x2="-231.625" y2="873.854" gradientTransform="matrix(8 0 0 -8 1981 7038)">
		<stop  offset="0" style="stop-color:#218AFE"/>
		<stop  offset="1" style="stop-color:#18EEF5"/>
	</linearGradient>
	<path class="st16" d="M104,144h48c4.4,0,8-3.6,8-8s-3.6-8-8-8h-48c-4.4,0-8,3.6-8,8S99.6,144,104,144z"/>
	<g>
		
			<linearGradient id="SVGID_18_" gradientUnits="userSpaceOnUse" x1="-202.625" y1="812.045" x2="-202.625" y2="873.854" gradientTransform="matrix(8 0 0 -8 1981 7038)">
			<stop  offset="0" style="stop-color:#218AFE"/>
			<stop  offset="1" style="stop-color:#18EEF5"/>
		</linearGradient>
		<path class="st17" d="M376,160h-32c-4.4,0-8,3.6-8,8v32c0,4.4,3.6,8,8,8h32c4.4,0,8-3.6,8-8v-32C384,163.6,380.4,160,376,160z
			 M368,192h-16v-16h16V192z"/>
		
			<linearGradient id="SVGID_19_" gradientUnits="userSpaceOnUse" x1="-202.625" y1="812.045" x2="-202.625" y2="873.854" gradientTransform="matrix(8 0 0 -8 1981 7038)">
			<stop  offset="0" style="stop-color:#218AFE"/>
			<stop  offset="1" style="stop-color:#18EEF5"/>
		</linearGradient>
		<path class="st18" d="M376,224h-32c-4.4,0-8,3.6-8,8v32c0,4.4,3.6,8,8,8h32c4.4,0,8-3.6,8-8v-32C384,227.6,380.4,224,376,224z
			 M368,256h-16v-16h16V256z"/>
	</g>
</g>
</svg>
