<?xml version="1.0" encoding="utf-8"?>
<!-- Generator: Adobe Illustrator 24.2.3, SVG Export Plug-In . SVG Version: 6.00 Build 0)  -->
<svg version="1.1" id="Layer_1" xmlns="http://www.w3.org/2000/svg" xmlns:xlink="http://www.w3.org/1999/xlink" x="0px" y="0px"
	 viewBox="0 0 512 512" style="enable-background:new 0 0 512 512;" xml:space="preserve">
<style type="text/css">
	.st0{fill:url(#SVGID_1_);}
</style>
<linearGradient id="SVGID_1_" gradientUnits="userSpaceOnUse" x1="255.9994" y1="513.5001" x2="255.9994" y2="2.4991" gradientTransform="matrix(1 0 0 -1 0 514)">
	<stop  offset="0" style="stop-color:#18EEF5"/>
	<stop  offset="1" style="stop-color:#2283FF"/>
</linearGradient>
<path class="st0" d="M378.7,45.3H234.3v49.6c0,4.4-3.6,8-8,8s-8-3.6-8-8V37.3c0-4.4,3.6-8,8-8h160.4c4.4,0,8,3.6,8,8v171.8
	c0,4.4-3.6,8-8,8H251.4c-4.4,0-8-3.6-8-8s3.6-8,8-8h127.4V45.3z M490.4,352.3c0,15.6-12.6,28.2-28.2,28.2h-38.6V433
	c0,16.8-13.7,30.5-30.5,30.5H245.4c-4.4,0-8-3.6-8-8s3.6-8,8-8H393c8,0,14.5-6.5,14.5-14.5v-52.5H356c-10.1,17.6-29,28.8-49.5,28.8
	c-31.4,0-57-25.6-57-57c0-31.4,25.6-57,57-57c20.6,0,39.5,11.2,49.5,28.8h51.5V31c0-8-6.5-14.5-14.5-14.5H219.9
	c-8,0-14.5,6.5-14.5,14.5v60.7c0,4.4-3.6,8-8,8s-8-3.6-8-8V31c0-16.8,13.7-30.5,30.5-30.5H393c16.8,0,30.5,13.7,30.5,30.5v293.2
	h38.6C477.7,324.1,490.4,336.8,490.4,352.3L490.4,352.3z M336.3,380.5H305c-15.6,0-28.2-12.7-28.2-28.2c0-15.5,12.7-28.2,28.2-28.2
	h31.3c-7.6-8-18.3-12.8-29.8-12.8c-22.6,0-41,18.4-41,41c0,22.6,18.4,41.1,41,41.1C317.9,393.4,328.6,388.5,336.3,380.5z
	 M474.4,352.3c0-6.7-5.5-12.2-12.2-12.2H305c-6.8,0-12.3,5.5-12.3,12.2c0,6.8,5.5,12.3,12.3,12.3h157.2
	C468.9,364.6,474.4,359.1,474.4,352.3L474.4,352.3z M357.1,63.7H255.8c-4.4,0-8,3.6-8,8c0,4.4,3.6,8,8,8h101.3c4.4,0,8-3.6,8-8
	S361.5,63.7,357.1,63.7z M259.3,117.2c6.3,0,11.4-5.1,11.4-11.4c0-6.3-5.1-11.4-11.4-11.4c-6.3,0-11.4,5.1-11.4,11.4
	C247.9,112.1,253,117.2,259.3,117.2z M290.8,94.4c-6.3,0-11.4,5.1-11.4,11.4c0,6.3,5.1,11.4,11.4,11.4c6.3,0,11.4-5.1,11.4-11.4
	C302.2,99.5,297,94.4,290.8,94.4z M322.2,94.4c-6.3,0-11.4,5.1-11.4,11.4c0,6.3,5.1,11.4,11.4,11.4c6.3,0,11.4-5.1,11.4-11.4
	C333.6,99.5,328.5,94.4,322.2,94.4z M353.7,94.4c-6.3,0-11.4,5.1-11.4,11.4c0,6.3,5.1,11.4,11.4,11.4c6.3,0,11.4-5.1,11.4-11.4
	C365.1,99.5,360,94.4,353.7,94.4z M259.3,149.9c6.3,0,11.4-5.1,11.4-11.4c0-6.3-5.1-11.4-11.4-11.4c-6.3,0-11.4,5.1-11.4,11.4
	C247.9,144.8,253,149.9,259.3,149.9L259.3,149.9z M290.8,127.1c-6.3,0-11.4,5.1-11.4,11.4c0,6.3,5.1,11.4,11.4,11.4
	c6.3,0,11.4-5.1,11.4-11.4C302.2,132.2,297,127.1,290.8,127.1L290.8,127.1z M322.2,127.1c-6.3,0-11.4,5.1-11.4,11.4
	c0,6.3,5.1,11.4,11.4,11.4c6.3,0,11.4-5.1,11.4-11.4C333.6,132.2,328.5,127.1,322.2,127.1L322.2,127.1z M353.7,127.1
	c-6.3,0-11.4,5.1-11.4,11.4c0,6.3,5.1,11.4,11.4,11.4c6.3,0,11.4-5.1,11.4-11.4C365.1,132.2,360,127.1,353.7,127.1L353.7,127.1z
	 M259.3,182.7c6.3,0,11.4-5.1,11.4-11.4c0-6.3-5.1-11.4-11.4-11.4c-6.3,0-11.4,5.1-11.4,11.4C247.9,177.6,253,182.7,259.3,182.7
	L259.3,182.7z M290.8,159.9c-6.3,0-11.4,5.1-11.4,11.4c0,6.3,5.1,11.4,11.4,11.4c6.3,0,11.4-5.1,11.4-11.4
	C302.2,165,297,159.9,290.8,159.9L290.8,159.9z M322.2,159.9c-6.3,0-11.4,5.1-11.4,11.4c0,6.3,5.1,11.4,11.4,11.4
	c6.3,0,11.4-5.1,11.4-11.4C333.6,165,328.5,159.9,322.2,159.9L322.2,159.9z M353.7,159.9c-6.3,0-11.4,5.1-11.4,11.4
	c0,6.3,5.1,11.4,11.4,11.4c6.3,0,11.4-5.1,11.4-11.4C365.1,165,360,159.9,353.7,159.9L353.7,159.9z M234.3,132.1v226.1
	c0,14.3-11.7,26-26,26h-2.9v20.7c14.5,14.6,21.8,30.8,22.5,49.5c0.6,19-6.1,37.8-12,52.2c-1.7,4.1-6.3,6-10.4,4.3
	c-4.1-1.7-6-6.3-4.3-10.4c14.2-34.5,17.7-61.1-9.2-86.4c-1.6-1.5-2.5-3.6-2.5-5.8v-100c0-8.7-7.1-15.7-15.7-15.7
	c-8.7,0-15.8,7.1-15.8,15.7v68c0,4.4-3.6,8-8,8H69.7c-14.3,0-26-11.7-26-26v-15.6c-7.1,10.7-8,24-2.9,40.7L83,500.8
	c1.5,4.1-0.7,8.7-4.8,10.2c-0.9,0.3-1.8,0.5-2.7,0.5c-3.3,0-6.3-2-7.5-5.3L25.7,388.6c0-0.1-0.1-0.3-0.1-0.4
	c-8.9-29.3-2.8-52.3,18.1-68.5V132.1c0-14.3,11.7-26,26-26h138.6C222.6,106.1,234.3,117.8,234.3,132.1L234.3,132.1z M218.3,132.1
	c0-5.5-4.5-10-10-10H69.7c-5.5,0-10,4.5-10,10v191.7v34.5c0,5.5,4.5,10,10,10H142v-60c0-17.5,14.2-31.7,31.7-31.7
	c17.5,0,31.7,14.2,31.7,31.7v60h2.9c5.5,0,10-4.5,10-10V132.1z M139,166.4c-22.5,0-44.1,9.1-62.5,26.2c-3.2,3-3.4,8.1-0.4,11.3
	c1.6,1.7,3.7,2.5,5.8,2.5c2,0,3.9-0.7,5.4-2.2c15.3-14.3,33.2-21.9,51.6-21.9c18.4,0,36.3,7.6,51.6,21.9c3.2,3,8.3,2.8,11.3-0.4
	s2.8-8.3-0.4-11.3C183.1,175.5,161.5,166.4,139,166.4L139,166.4z M185.9,213.2c-14-11.7-30.2-17.9-46.9-17.9
	c-16.7,0-32.9,6.2-46.9,17.9c-3.4,2.8-3.8,7.9-1,11.2c2.8,3.4,7.9,3.8,11.2,1c11.1-9.3,23.7-14.2,36.6-14.2
	c12.9,0,25.5,4.9,36.6,14.2c1.5,1.3,3.3,1.9,5.1,1.9c2.3,0,4.5-1,6.1-2.9C189.7,221,189.2,216,185.9,213.2z M169.7,233.9
	c-9.4-6.4-20-9.8-30.7-9.8c-10.7,0-21.3,3.4-30.7,9.8c-3.6,2.5-4.6,7.4-2.1,11.1c2.5,3.6,7.4,4.6,11.1,2.1c6.8-4.7,14.1-7,21.7-7
	c7.6,0,14.9,2.4,21.7,7c1.4,0.9,2.9,1.4,4.5,1.4c2.6,0,5.1-1.2,6.6-3.5C174.3,241.3,173.3,236.4,169.7,233.9z"/>
</svg>
