<?xml version="1.0" encoding="utf-8"?>
<!-- Generator: Adobe Illustrator 24.2.3, SVG Export Plug-In . SVG Version: 6.00 Build 0)  -->
<svg version="1.1" id="Layer_1" xmlns="http://www.w3.org/2000/svg" xmlns:xlink="http://www.w3.org/1999/xlink" x="0px" y="0px"
	 viewBox="0 0 512 512" style="enable-background:new 0 0 512 512;" xml:space="preserve">
<style type="text/css">
	.st0{fill:url(#SVGID_1_);}
	.st1{fill:url(#SVGID_2_);}
	.st2{fill:url(#SVGID_3_);}
	.st3{fill:url(#SVGID_4_);}
	.st4{fill:url(#SVGID_5_);}
	.st5{fill:url(#SVGID_6_);}
	.st6{fill:url(#SVGID_7_);}
	.st7{fill:url(#SVGID_8_);}
	.st8{fill:url(#SVGID_9_);}
	.st9{fill:url(#SVGID_10_);}
	.st10{fill:url(#SVGID_11_);}
</style>
<g id="calendar-day-date-schedule-hand">
	
		<linearGradient id="SVGID_1_" gradientUnits="userSpaceOnUse" x1="-207.625" y1="813.658" x2="-207.625" y2="873.964" gradientTransform="matrix(8 0 0 -8 1981 7038)">
		<stop  offset="0" style="stop-color:#218AFE"/>
		<stop  offset="1" style="stop-color:#18EEF5"/>
	</linearGradient>
	<path class="st0" d="M456,48h-40v-8c0-13.3-10.7-24-24-24s-24,10.7-24,24v8h-96v-8c0-13.3-10.7-24-24-24c-13.3,0-24,10.7-24,24v8
		h-40c-13.2,0-24,10.8-24,24v224c0,13.2,10.8,24,24,24h272c13.2,0,24-10.8,24-24V72C480,58.8,469.2,48,456,48z M384,40
		c0-4.4,3.6-8,8-8s8,3.6,8,8v32c0,4.4-3.6,8-8,8s-8-3.6-8-8V40z M240,40c0-4.4,3.6-8,8-8s8,3.6,8,8v32c0,4.4-3.6,8-8,8s-8-3.6-8-8
		V40z M464,296c0,4.4-3.6,8-8,8H184c-4.4,0-8-3.6-8-8V128h288V296z M464,112H176V72c0-4.4,3.6-8,8-8h40v8c0,13.3,10.7,24,24,24
		c13.3,0,24-10.7,24-24v-8h96v8c0,13.3,10.7,24,24,24s24-10.7,24-24v-8h40c4.4,0,8,3.6,8,8V112z"/>
	
		<linearGradient id="SVGID_2_" gradientUnits="userSpaceOnUse" x1="-215.7837" y1="813.658" x2="-215.7837" y2="873.964" gradientTransform="matrix(8 0 0 -8 1981 7038)">
		<stop  offset="0" style="stop-color:#218AFE"/>
		<stop  offset="1" style="stop-color:#18EEF5"/>
	</linearGradient>
	<path class="st1" d="M489.2,359.2c-8.8-15.3-28.4-20.5-43.7-11.8l-78,45c-4.3-6.4-10.7-11-18.1-13l-119.4-31.9
		c-9.2-2.5-18.9-2.6-28.1-0.2l-42,10.5V344c0-4.4-3.6-8-8-8H88c-4.4,0-8,3.6-8,8v8H24c-4.4,0-8,3.6-8,8v112c0,4.4,3.6,8,8,8h56v8
		c0,4.4,3.6,8,8,8h64c4.4,0,8-3.6,8-8v-11l10.3,5.1c7.8,3.9,16.3,5.9,25,5.9h119.8c9.8,0,19.5-2.6,28-7.5l134.4-77.6
		C492.8,394,498,374.5,489.2,359.2L489.2,359.2z M80,464H32v-96h48V464z M144,480H96V352h48V480z M469.5,389l-134.4,77.6
		c-6.1,3.5-13,5.4-20,5.4H195.4c-6.2,0-12.4-1.4-17.9-4.2L160,459v-84.8l45.8-11.4c6.6-1.7,13.5-1.6,20.1,0.2l119.4,32
		c8.5,2.2,13.6,10.9,11.4,19.4c-1.1,4.2-3.8,7.7-7.6,9.9c-3.6,2.1-8,2.7-12.1,1.6l-95.4-25.6c-4.3-1.1-8.7,1.4-9.8,5.7
		s1.4,8.7,5.7,9.8l95.4,25.5c2.7,0.7,5.5,1.1,8.3,1.1c5.6,0,11.1-1.5,15.9-4.3c7.4-4.2,12.8-11.2,15-19.4c0.9-3.5,1.2-7.2,0.9-10.8
		l80.6-46.5c7.6-4.2,17.3-1.7,21.8,5.8C479.7,374.8,477.1,384.6,469.5,389L469.5,389z"/>
	
		<linearGradient id="SVGID_3_" gradientUnits="userSpaceOnUse" x1="-232.625" y1="813.658" x2="-232.625" y2="873.964" gradientTransform="matrix(8 0 0 -8 1981 7038)">
		<stop  offset="0" style="stop-color:#218AFE"/>
		<stop  offset="1" style="stop-color:#18EEF5"/>
	</linearGradient>
	<path class="st2" d="M120,472c4.4,0,8-3.6,8-8v-8c0-4.4-3.6-8-8-8s-8,3.6-8,8v8C112,468.4,115.6,472,120,472z"/>
	
		<linearGradient id="SVGID_4_" gradientUnits="userSpaceOnUse" x1="-219.625" y1="813.658" x2="-219.625" y2="873.964" gradientTransform="matrix(8 0 0 -8 1981 7038)">
		<stop  offset="0" style="stop-color:#218AFE"/>
		<stop  offset="1" style="stop-color:#18EEF5"/>
	</linearGradient>
	<path class="st3" d="M208,208h32c4.4,0,8-3.6,8-8v-32c0-4.4-3.6-8-8-8h-32c-4.4,0-8,3.6-8,8v32C200,204.4,203.6,208,208,208z
		 M216,176h16v16h-16V176z"/>
	
		<linearGradient id="SVGID_5_" gradientUnits="userSpaceOnUse" x1="-211.625" y1="813.658" x2="-211.625" y2="873.964" gradientTransform="matrix(8 0 0 -8 1981 7038)">
		<stop  offset="0" style="stop-color:#218AFE"/>
		<stop  offset="1" style="stop-color:#18EEF5"/>
	</linearGradient>
	<path class="st4" d="M272,208h32c4.4,0,8-3.6,8-8v-32c0-4.4-3.6-8-8-8h-32c-4.4,0-8,3.6-8,8v32C264,204.4,267.6,208,272,208z
		 M280,176h16v16h-16V176z"/>
	
		<linearGradient id="SVGID_6_" gradientUnits="userSpaceOnUse" x1="-203.625" y1="813.658" x2="-203.625" y2="873.964" gradientTransform="matrix(8 0 0 -8 1981 7038)">
		<stop  offset="0" style="stop-color:#218AFE"/>
		<stop  offset="1" style="stop-color:#18EEF5"/>
	</linearGradient>
	<path class="st5" d="M336,208h32c4.4,0,8-3.6,8-8v-32c0-4.4-3.6-8-8-8h-32c-4.4,0-8,3.6-8,8v32C328,204.4,331.6,208,336,208z
		 M344,176h16v16h-16V176z"/>
	
		<linearGradient id="SVGID_7_" gradientUnits="userSpaceOnUse" x1="-195.625" y1="813.658" x2="-195.625" y2="873.964" gradientTransform="matrix(8 0 0 -8 1981 7038)">
		<stop  offset="0" style="stop-color:#218AFE"/>
		<stop  offset="1" style="stop-color:#18EEF5"/>
	</linearGradient>
	<path class="st6" d="M400,208h32c4.4,0,8-3.6,8-8v-32c0-4.4-3.6-8-8-8h-32c-4.4,0-8,3.6-8,8v32C392,204.4,395.6,208,400,208z
		 M408,176h16v16h-16V176z"/>
	
		<linearGradient id="SVGID_8_" gradientUnits="userSpaceOnUse" x1="-219.625" y1="813.658" x2="-219.625" y2="873.964" gradientTransform="matrix(8 0 0 -8 1981 7038)">
		<stop  offset="0" style="stop-color:#218AFE"/>
		<stop  offset="1" style="stop-color:#18EEF5"/>
	</linearGradient>
	<path class="st7" d="M208,272h32c4.4,0,8-3.6,8-8v-32c0-4.4-3.6-8-8-8h-32c-4.4,0-8,3.6-8,8v32C200,268.4,203.6,272,208,272z
		 M216,240h16v16h-16V240z"/>
	
		<linearGradient id="SVGID_9_" gradientUnits="userSpaceOnUse" x1="-211.625" y1="813.658" x2="-211.625" y2="873.964" gradientTransform="matrix(8 0 0 -8 1981 7038)">
		<stop  offset="0" style="stop-color:#218AFE"/>
		<stop  offset="1" style="stop-color:#18EEF5"/>
	</linearGradient>
	<path class="st8" d="M272,272h32c4.4,0,8-3.6,8-8v-32c0-4.4-3.6-8-8-8h-32c-4.4,0-8,3.6-8,8v32C264,268.4,267.6,272,272,272z
		 M280,240h16v16h-16V240z"/>
	
		<linearGradient id="SVGID_10_" gradientUnits="userSpaceOnUse" x1="-203.625" y1="813.658" x2="-203.625" y2="873.964" gradientTransform="matrix(8 0 0 -8 1981 7038)">
		<stop  offset="0" style="stop-color:#218AFE"/>
		<stop  offset="1" style="stop-color:#18EEF5"/>
	</linearGradient>
	<path class="st9" d="M336,272h32c4.4,0,8-3.6,8-8v-32c0-4.4-3.6-8-8-8h-32c-4.4,0-8,3.6-8,8v32C328,268.4,331.6,272,336,272z
		 M344,240h16v16h-16V240z"/>
	
		<linearGradient id="SVGID_11_" gradientUnits="userSpaceOnUse" x1="-195.625" y1="813.658" x2="-195.625" y2="873.964" gradientTransform="matrix(8 0 0 -8 1981 7038)">
		<stop  offset="0" style="stop-color:#218AFE"/>
		<stop  offset="1" style="stop-color:#18EEF5"/>
	</linearGradient>
	<path class="st10" d="M400,272h32c4.4,0,8-3.6,8-8v-32c0-4.4-3.6-8-8-8h-32c-4.4,0-8,3.6-8,8v32C392,268.4,395.6,272,400,272z
		 M408,240h16v16h-16V240z"/>
</g>
</svg>
