<svg width="156" height="156" viewBox="0 0 156 156" fill="none" xmlns="http://www.w3.org/2000/svg">
<path d="M93.3523 7.52472H62.6478C61.6384 7.52472 60.8125 8.3506 60.8125 9.36001V28.9793H95.1967V9.36001C95.1876 8.3506 94.3708 7.52472 93.3523 7.52472Z" fill="#D2D3D3"/>
<path d="M109.98 148.475H46.0196C42.9821 148.475 40.5137 146.007 40.5137 142.969V27.9974C40.5137 24.96 42.9821 22.4915 46.0196 22.4915H109.97C113.008 22.4915 115.476 24.96 115.476 27.9974V142.969C115.485 146.007 113.017 148.475 109.98 148.475Z" fill="#00C2F0"/>
<path d="M81.8082 57.8668L58.3164 88.8649H76.6235L70.0623 113.1L97.6835 80.9365H77.1557L81.8082 57.8668Z" fill="white"/>
</svg>
