<svg width="44" height="44" viewBox="0 0 44 44" fill="none" xmlns="http://www.w3.org/2000/svg">
<path fill-rule="evenodd" clip-rule="evenodd" d="M30.396 14.9299L14.9283 30.3976L13.6025 29.0718L29.0702 13.6041L30.396 14.9299Z" fill="white"/>
<path fill-rule="evenodd" clip-rule="evenodd" d="M28.4082 14.2659C25.2903 17.3838 25.4844 22.6735 28.4082 25.5973L29.0711 26.2602L30.3969 24.9344L29.734 24.2715C27.5141 22.0516 27.3763 17.9494 29.734 15.5918L30.3965 14.9292L29.0707 13.6034L28.4082 14.2659Z" fill="white"/>
<path fill-rule="evenodd" clip-rule="evenodd" d="M29.7339 15.5917C26.616 18.7096 21.3263 18.5154 18.4024 15.5916L17.7395 14.9287L19.0654 13.6029L19.7283 14.2658C21.9482 16.4857 26.0504 16.6235 28.408 14.2658L29.0706 13.6033L30.3964 14.9291L29.7339 15.5917Z" fill="white"/>
</svg>
