<svg width="14" height="14" viewBox="0 0 14 14" fill="none" xmlns="http://www.w3.org/2000/svg">
<path fill-rule="evenodd" clip-rule="evenodd" d="M12.5724 6.55254C12.8196 6.79981 12.8196 7.2034 12.5724 7.45067L7.72891 12.294C7.48125 12.5416 7.0784 12.5416 6.83077 12.294L6.55985 12.023C6.31198 11.7752 6.31193 11.3725 6.55982 11.1246L10.234 7.45078C10.4819 7.20291 10.4819 6.80019 10.234 6.55232L6.55985 2.87847C6.31193 2.63057 6.31195 2.22796 6.55988 1.98006L6.8308 1.70914C7.07807 1.46187 7.48166 1.46187 7.72893 1.70914L12.5724 6.55254ZM2.59895 1.70908C2.35143 1.46154 1.94819 1.46157 1.70068 1.70908L1.42975 1.98001C1.18235 2.22741 1.18232 2.63101 1.42975 2.87844L5.10374 6.55232C5.35164 6.80022 5.35164 7.20288 5.10374 7.45078L1.42973 11.1246C1.18221 11.3721 1.18224 11.7756 1.42973 12.0231L1.70065 12.294C1.94827 12.5416 2.35129 12.5416 2.59892 12.294L7.01215 7.88062C8.25011 9.11735 7.93697 8.80372 7.01305 7.87972L7.44207 7.45067C7.6895 7.20324 7.68948 6.79994 7.44207 6.55251L2.59895 1.70908Z" fill="#053F33"/>
</svg>
