<svg width="43" height="44" viewBox="0 0 43 44" fill="none" xmlns="http://www.w3.org/2000/svg">
<g clip-path="url(#clip0_12233_481)">
<path d="M38.2664 4.59084L7.09234 2.41094C6.66198 2.38085 6.28858 2.70544 6.25849 3.13579L3.75161 38.9859C3.72151 39.4163 4.0461 39.7897 4.47646 39.8198L35.6505 41.9997C36.0809 42.0297 36.4542 41.7052 36.4843 41.2748L38.9912 5.42469C39.0213 4.99425 38.6967 4.62094 38.2664 4.59084ZM37.378 6.09504L37.269 7.65373L20.1233 6.45479C19.693 6.4247 19.3196 6.74928 19.2895 7.17964C19.2594 7.61007 19.584 7.98339 20.0143 8.01348L37.16 9.21243L37.051 10.7711L7.4357 8.70022L7.76269 4.02413L37.378 6.09504ZM5.3648 38.3156L7.32671 10.2589L36.9421 12.3298L34.9801 40.3865L5.3648 38.3156Z" fill="white"/>
<path d="M34.4986 13.7247L9.55938 11.9808C9.12902 11.9507 8.75563 12.2753 8.72553 12.7056L7.0906 36.0862C7.06051 36.5165 7.3851 36.8899 7.81545 36.92L32.7547 38.6639C33.1851 38.694 33.5585 38.3695 33.5886 37.9391L35.2235 14.5585C35.2536 14.1282 34.929 13.7548 34.4986 13.7247ZM32.0844 37.0507L8.7038 35.4158L10.2297 13.594L33.6103 15.2289L32.0844 37.0507Z" fill="white"/>
<path d="M10.9468 14.4248L12.5055 14.5338L12.3965 16.0925L10.8378 15.9835L10.9468 14.4248Z" fill="white"/>
<path d="M13.292 14.5942L30.4377 15.7932L30.3287 17.3519L13.183 16.1529L13.292 14.5942Z" fill="white"/>
<path d="M11.9744 33.2954L29.1201 34.4944L29.0111 36.053L11.8654 34.8541L11.9744 33.2954Z" fill="white"/>
<path d="M9.20874 5.69287L10.7674 5.80187L10.6584 7.36056L9.09975 7.25156L9.20874 5.69287Z" fill="white"/>
<path d="M11.5479 5.854L13.1065 5.963L12.9976 7.52169L11.4389 7.4127L11.5479 5.854Z" fill="white"/>
<path d="M13.894 6.01953L15.4527 6.12853L15.3437 7.68722L13.785 7.57823L13.894 6.01953Z" fill="white"/>
<path d="M9.64355 33.1348L11.2022 33.2438L11.0933 34.8025L9.53456 34.6935L9.64355 33.1348Z" fill="white"/>
<path d="M10.7893 16.7642L12.348 16.8732L11.2581 32.4601L9.69936 32.3511L10.7893 16.7642Z" fill="white"/>
<path d="M31.2156 15.8433L32.7743 15.9523L32.6653 17.511L31.1066 17.402L31.2156 15.8433Z" fill="white"/>
<path d="M29.9124 34.5493L31.471 34.6583L31.3621 36.217L29.8034 36.108L29.9124 34.5493Z" fill="white"/>
<path d="M31.05 18.1816L32.6087 18.2906L31.5188 33.8776L29.9601 33.7686L31.05 18.1816Z" fill="white"/>
<path d="M14.1394 24.83C13.869 28.6975 16.7956 32.0642 20.6631 32.3346C24.5305 32.6051 27.8973 29.6784 28.1677 25.811C28.4382 21.9432 25.5114 18.5768 21.644 18.3064C17.7766 18.036 14.4099 20.9622 14.1394 24.83ZM26.609 25.702C26.3986 28.7103 23.7803 30.9863 20.772 30.7759C17.7638 30.5656 15.4877 27.9473 15.6981 24.939C15.9085 21.9308 18.5269 19.6547 21.535 19.8651C24.5432 20.0754 26.8193 22.6937 26.609 25.702Z" fill="white"/>
<path d="M18.3912 25.2232C18.1081 24.898 17.6149 24.8635 17.2892 25.1462C16.9635 25.4293 16.929 25.9229 17.2121 26.2486L19.262 28.6068C19.5452 28.9325 20.0387 28.967 20.3645 28.6839L25.0813 24.5836C25.407 24.3005 25.4415 23.807 25.1584 23.4815C24.8756 23.1558 24.3821 23.1213 24.0563 23.4045L19.9289 26.9922L18.3912 25.2232Z" fill="white"/>
</g>
<defs>
<clipPath id="clip0_12233_481">
<rect width="40" height="40" fill="white" transform="translate(2.82056 0.858887) rotate(4)"/>
</clipPath>
</defs>
</svg>
