<svg width="25" height="25" viewBox="0 0 25 25" fill="none" xmlns="http://www.w3.org/2000/svg">
<path d="M22.1939 4.65694C22.1939 4.65694 22.1939 4.66631 22.1939 4.671L16.7376 22.6654C16.655 22.9576 16.485 23.2177 16.2504 23.4105C16.0158 23.6034 15.7278 23.7199 15.4251 23.7444C15.382 23.7482 15.3389 23.7501 15.2957 23.7501C15.012 23.7509 14.734 23.6706 14.4945 23.5187C14.2549 23.3667 14.0639 23.1493 13.9439 22.8923L10.5961 15.8244C10.563 15.7545 10.5524 15.6761 10.5656 15.5999C10.5789 15.5237 10.6154 15.4535 10.6701 15.3988L16.0382 10.0297C16.173 9.88795 16.247 9.69914 16.2444 9.50357C16.2419 9.308 16.1631 9.12114 16.0248 8.98284C15.8865 8.84454 15.6997 8.76574 15.5041 8.76323C15.3085 8.76073 15.1197 8.83472 14.9779 8.96944L9.60137 14.3376C9.54672 14.3923 9.47649 14.4288 9.40029 14.442C9.32409 14.4553 9.24566 14.4447 9.17574 14.4116L2.14449 11.0807C1.86835 10.9542 1.63595 10.7486 1.47674 10.4899C1.31753 10.2312 1.23866 9.93109 1.25012 9.62756C1.26539 9.31559 1.37833 9.01632 1.57297 8.77204C1.76762 8.52777 2.03412 8.35085 2.3348 8.26631L20.3292 2.81006H20.3432C20.5994 2.73808 20.8702 2.73556 21.1277 2.80275C21.3852 2.86994 21.6202 3.00443 21.8085 3.19242C21.9969 3.3804 22.1319 3.61512 22.1996 3.87248C22.2673 4.12984 22.2653 4.40059 22.1939 4.65694Z" fill="white"/>
</svg>
