<svg width="50" height="50" viewBox="0 0 50 50" fill="none" xmlns="http://www.w3.org/2000/svg">
<path fill-rule="evenodd" clip-rule="evenodd" d="M34.5417 16.7511L16.496 34.7968L14.9492 33.25L32.9949 15.2043L34.5417 16.7511Z" fill="#053F33"/>
<path fill-rule="evenodd" clip-rule="evenodd" d="M32.2233 15.976C28.5857 19.6135 28.8122 25.7848 32.2233 29.1959L32.9967 29.9693L34.5434 28.4225L33.7701 27.6491C31.1802 25.0593 31.0194 20.2734 33.7701 17.5228L34.543 16.7498L32.9962 15.203L32.2233 15.976Z" fill="#053F33"/>
<path fill-rule="evenodd" clip-rule="evenodd" d="M33.7707 17.5234C30.1332 21.161 23.9618 20.9345 20.5507 17.5234L19.7773 16.75L21.3241 15.2032L22.0975 15.9766C24.6875 18.5665 29.4733 18.7273 32.2239 15.9767L32.9969 15.2037L34.5437 16.7505L33.7707 17.5234Z" fill="#053F33"/>
</svg>
